G04 #@! TF.GenerationSoftware,KiCad,Pcbnew,7.0.11-2.fc39*
G04 #@! TF.CreationDate,2024-04-29T12:27:34+02:00*
G04 #@! TF.ProjectId,pami kicad,70616d69-206b-4696-9361-642e6b696361,rev?*
G04 #@! TF.SameCoordinates,Original*
G04 #@! TF.FileFunction,Copper,L2,Bot*
G04 #@! TF.FilePolarity,Positive*
%FSLAX46Y46*%
G04 Gerber Fmt 4.6, Leading zero omitted, Abs format (unit mm)*
G04 Created by KiCad (PCBNEW 7.0.11-2.fc39) date 2024-04-29 12:27:34*
%MOMM*%
%LPD*%
G01*
G04 APERTURE LIST*
%ADD10C,0.300000*%
G04 #@! TA.AperFunction,ComponentPad*
%ADD11R,1.300000X1.700000*%
G04 #@! TD*
G04 #@! TA.AperFunction,ComponentPad*
%ADD12O,1.300000X1.700000*%
G04 #@! TD*
G04 #@! TA.AperFunction,ComponentPad*
%ADD13R,2.000000X2.000000*%
G04 #@! TD*
G04 #@! TA.AperFunction,ComponentPad*
%ADD14C,2.000000*%
G04 #@! TD*
G04 #@! TA.AperFunction,ComponentPad*
%ADD15C,1.600000*%
G04 #@! TD*
G04 #@! TA.AperFunction,ComponentPad*
%ADD16O,1.600000X1.600000*%
G04 #@! TD*
G04 #@! TA.AperFunction,ComponentPad*
%ADD17R,1.600000X1.200000*%
G04 #@! TD*
G04 #@! TA.AperFunction,ComponentPad*
%ADD18O,1.600000X1.200000*%
G04 #@! TD*
G04 #@! TA.AperFunction,ComponentPad*
%ADD19C,1.800000*%
G04 #@! TD*
G04 #@! TA.AperFunction,ComponentPad*
%ADD20R,1.500000X2.000000*%
G04 #@! TD*
G04 #@! TA.AperFunction,ComponentPad*
%ADD21O,1.500000X2.000000*%
G04 #@! TD*
G04 #@! TA.AperFunction,ComponentPad*
%ADD22R,1.500000X2.540000*%
G04 #@! TD*
G04 #@! TA.AperFunction,ComponentPad*
%ADD23O,1.500000X2.540000*%
G04 #@! TD*
G04 #@! TA.AperFunction,ComponentPad*
%ADD24R,1.800000X2.200000*%
G04 #@! TD*
G04 #@! TA.AperFunction,ComponentPad*
%ADD25O,1.800000X2.200000*%
G04 #@! TD*
G04 #@! TA.AperFunction,ComponentPad*
%ADD26C,5.500000*%
G04 #@! TD*
G04 #@! TA.AperFunction,ComponentPad*
%ADD27R,2.500000X1.500000*%
G04 #@! TD*
G04 #@! TA.AperFunction,ComponentPad*
%ADD28O,2.500000X1.500000*%
G04 #@! TD*
G04 #@! TA.AperFunction,ComponentPad*
%ADD29R,2.200000X1.800000*%
G04 #@! TD*
G04 #@! TA.AperFunction,ComponentPad*
%ADD30O,2.200000X1.800000*%
G04 #@! TD*
G04 #@! TA.AperFunction,ComponentPad*
%ADD31O,2.000000X1.524000*%
G04 #@! TD*
G04 #@! TA.AperFunction,ComponentPad*
%ADD32R,4.000000X3.000000*%
G04 #@! TD*
G04 #@! TA.AperFunction,ComponentPad*
%ADD33O,4.000000X3.000000*%
G04 #@! TD*
G04 #@! TA.AperFunction,ViaPad*
%ADD34C,1.700000*%
G04 #@! TD*
G04 #@! TA.AperFunction,Conductor*
%ADD35C,1.500000*%
G04 #@! TD*
G04 #@! TA.AperFunction,Conductor*
%ADD36C,0.500000*%
G04 #@! TD*
G04 #@! TA.AperFunction,Conductor*
%ADD37C,1.000000*%
G04 #@! TD*
G04 APERTURE END LIST*
D10*
G36*
X107599493Y-105895535D02*
G01*
X107636497Y-105932539D01*
X107689676Y-106038898D01*
X107752632Y-106290720D01*
X107752632Y-106610936D01*
X107689676Y-106862757D01*
X107636496Y-106969117D01*
X107599493Y-107006121D01*
X107510080Y-107050828D01*
X107438042Y-107050828D01*
X107348629Y-107006122D01*
X107311625Y-106969118D01*
X107258445Y-106862758D01*
X107195489Y-106610934D01*
X107195489Y-106290721D01*
X107258445Y-106038897D01*
X107311625Y-105932538D01*
X107348629Y-105895534D01*
X107438042Y-105850828D01*
X107510079Y-105850828D01*
X107599493Y-105895535D01*
G37*
G36*
X114538346Y-106336542D02*
G01*
X114152327Y-106336542D01*
X114062913Y-106291835D01*
X114025908Y-106254830D01*
X113981203Y-106165418D01*
X113981203Y-106021951D01*
X114025908Y-105932540D01*
X114062913Y-105895535D01*
X114152327Y-105850828D01*
X114538346Y-105850828D01*
X114538346Y-106336542D01*
G37*
G36*
X125395489Y-106336542D02*
G01*
X125009470Y-106336542D01*
X124920056Y-106291835D01*
X124883051Y-106254830D01*
X124838346Y-106165418D01*
X124838346Y-106021951D01*
X124883051Y-105932540D01*
X124920056Y-105895535D01*
X125009470Y-105850828D01*
X125395489Y-105850828D01*
X125395489Y-106336542D01*
G37*
G36*
X113051661Y-106622257D02*
G01*
X112753602Y-106622257D01*
X112902631Y-106175169D01*
X113051661Y-106622257D01*
G37*
G36*
X123908804Y-106622257D02*
G01*
X123610745Y-106622257D01*
X123759774Y-106175169D01*
X123908804Y-106622257D01*
G37*
G36*
X125909775Y-107565114D02*
G01*
X94824062Y-107565114D01*
X94824062Y-106915114D01*
X95038348Y-106915114D01*
X95047271Y-106948415D01*
X95054184Y-106982196D01*
X95125613Y-107125053D01*
X95141635Y-107143121D01*
X95153711Y-107164037D01*
X95225140Y-107235466D01*
X95246054Y-107247540D01*
X95264124Y-107263564D01*
X95406982Y-107334992D01*
X95440757Y-107341903D01*
X95474063Y-107350828D01*
X95831206Y-107350828D01*
X95864509Y-107341904D01*
X95898288Y-107334992D01*
X96041145Y-107263564D01*
X96059214Y-107247540D01*
X96080130Y-107235465D01*
X96147370Y-107168224D01*
X96472031Y-107168224D01*
X96490856Y-107200828D01*
X96510853Y-107235465D01*
X96510855Y-107235467D01*
X96582284Y-107306895D01*
X96592959Y-107313058D01*
X96599384Y-107316767D01*
X96613349Y-107330732D01*
X96632423Y-107335843D01*
X96649526Y-107345717D01*
X96649527Y-107345717D01*
X96669274Y-107345717D01*
X96688349Y-107350828D01*
X96707424Y-107345717D01*
X96727173Y-107345717D01*
X96744275Y-107335842D01*
X96763349Y-107330732D01*
X96777313Y-107316767D01*
X96783737Y-107313059D01*
X96794415Y-107306894D01*
X96865843Y-107235466D01*
X96885841Y-107200828D01*
X97181205Y-107200828D01*
X97201301Y-107275828D01*
X97256205Y-107330732D01*
X97331205Y-107350828D01*
X97759777Y-107350828D01*
X98188348Y-107350828D01*
X98263348Y-107330732D01*
X98318252Y-107275828D01*
X98338348Y-107200828D01*
X98318252Y-107125828D01*
X98263348Y-107070924D01*
X98188348Y-107050828D01*
X97909777Y-107050828D01*
X97909777Y-106134389D01*
X97939425Y-106164037D01*
X97960340Y-106176112D01*
X97978409Y-106192135D01*
X98121265Y-106263564D01*
X98197335Y-106279131D01*
X98270996Y-106254577D01*
X98322512Y-106196482D01*
X98338079Y-106120413D01*
X98313525Y-106046752D01*
X98255430Y-105995236D01*
X98134345Y-105934693D01*
X98019204Y-105819552D01*
X97920007Y-105670756D01*
X98469964Y-105670756D01*
X98474617Y-105748262D01*
X98974617Y-107248262D01*
X98991215Y-107273402D01*
X99004689Y-107300349D01*
X99012342Y-107305402D01*
X99017398Y-107313059D01*
X99044349Y-107326534D01*
X99069485Y-107343130D01*
X99078640Y-107343679D01*
X99086847Y-107347783D01*
X99116922Y-107345977D01*
X99146991Y-107347783D01*
X99155195Y-107343680D01*
X99164353Y-107343131D01*
X99189497Y-107326529D01*
X99216440Y-107313058D01*
X99221493Y-107305404D01*
X99229150Y-107300349D01*
X99242625Y-107273397D01*
X99259221Y-107248262D01*
X99465509Y-106629400D01*
X101109777Y-106629400D01*
X101129873Y-106704400D01*
X101184777Y-106759304D01*
X101259777Y-106779400D01*
X102402634Y-106779400D01*
X102477634Y-106759304D01*
X102532538Y-106704400D01*
X102533495Y-106700828D01*
X103966919Y-106700828D01*
X103987015Y-106775828D01*
X104041919Y-106830732D01*
X104116919Y-106850828D01*
X104181205Y-106850828D01*
X104181205Y-107200828D01*
X104201301Y-107275828D01*
X104256205Y-107330732D01*
X104331205Y-107350828D01*
X104406205Y-107330732D01*
X104461109Y-107275828D01*
X104481205Y-107200828D01*
X105466918Y-107200828D01*
X105487014Y-107275828D01*
X105541918Y-107330732D01*
X105616918Y-107350828D01*
X106545490Y-107350828D01*
X106564565Y-107345717D01*
X106584313Y-107345717D01*
X106601415Y-107335843D01*
X106620490Y-107330732D01*
X106634454Y-107316767D01*
X106651556Y-107306894D01*
X106661429Y-107289792D01*
X106675394Y-107275828D01*
X106680505Y-107256753D01*
X106690379Y-107239651D01*
X106690379Y-107219902D01*
X106695490Y-107200828D01*
X106690379Y-107181753D01*
X106690379Y-107162005D01*
X106680505Y-107144902D01*
X106675394Y-107125828D01*
X106661429Y-107111863D01*
X106651556Y-107094762D01*
X106186194Y-106629400D01*
X106895489Y-106629400D01*
X106900279Y-106647276D01*
X106899968Y-106665781D01*
X106971397Y-106951494D01*
X106979433Y-106965971D01*
X106982754Y-106982196D01*
X107054183Y-107125053D01*
X107070205Y-107143121D01*
X107082280Y-107164036D01*
X107153708Y-107235465D01*
X107174623Y-107247540D01*
X107192693Y-107263564D01*
X107335551Y-107334992D01*
X107369326Y-107341903D01*
X107402632Y-107350828D01*
X107545489Y-107350828D01*
X107578794Y-107341903D01*
X107612570Y-107334992D01*
X107755429Y-107263564D01*
X107773498Y-107247540D01*
X107794414Y-107235465D01*
X107829051Y-107200828D01*
X108324060Y-107200828D01*
X108344156Y-107275828D01*
X108399060Y-107330732D01*
X108474060Y-107350828D01*
X109402632Y-107350828D01*
X109421707Y-107345717D01*
X109441455Y-107345717D01*
X109458557Y-107335843D01*
X109477632Y-107330732D01*
X109491596Y-107316767D01*
X109508698Y-107306894D01*
X109518571Y-107289792D01*
X109532536Y-107275828D01*
X109537647Y-107256753D01*
X109547521Y-107239651D01*
X109547521Y-107219902D01*
X109552632Y-107200828D01*
X109547521Y-107181753D01*
X109547521Y-107162005D01*
X109537647Y-107144902D01*
X109532536Y-107125828D01*
X109518571Y-107111863D01*
X109509871Y-107096793D01*
X110900600Y-107096793D01*
X110939422Y-107164036D01*
X111010850Y-107235465D01*
X111040707Y-107252703D01*
X111069483Y-107271703D01*
X111283769Y-107343131D01*
X111307877Y-107344578D01*
X111331203Y-107350828D01*
X111474060Y-107350828D01*
X111497385Y-107344578D01*
X111521494Y-107343131D01*
X111735780Y-107271703D01*
X111764555Y-107252703D01*
X111794412Y-107235466D01*
X111798978Y-107230900D01*
X112255676Y-107230900D01*
X112290401Y-107300349D01*
X112355197Y-107343130D01*
X112432703Y-107347783D01*
X112502152Y-107313058D01*
X112544933Y-107248262D01*
X112653602Y-106922257D01*
X113151661Y-106922257D01*
X113260329Y-107248262D01*
X113303110Y-107313059D01*
X113372559Y-107347783D01*
X113450065Y-107343131D01*
X113514862Y-107300349D01*
X113549586Y-107230900D01*
X113544934Y-107153394D01*
X113227411Y-106200828D01*
X113681203Y-106200828D01*
X113690126Y-106234131D01*
X113697039Y-106267910D01*
X113768467Y-106410767D01*
X113784490Y-106428836D01*
X113796565Y-106449751D01*
X113867994Y-106521180D01*
X113888908Y-106533254D01*
X113906978Y-106549278D01*
X114049836Y-106620706D01*
X114053644Y-106621485D01*
X113708318Y-107114809D01*
X113681772Y-107187775D01*
X113695266Y-107264240D01*
X113745184Y-107323713D01*
X113818150Y-107350259D01*
X113894615Y-107336765D01*
X113954088Y-107286847D01*
X114409301Y-106636542D01*
X114538346Y-106636542D01*
X114538346Y-107200828D01*
X114558442Y-107275828D01*
X114613346Y-107330732D01*
X114688346Y-107350828D01*
X114763346Y-107330732D01*
X114818250Y-107275828D01*
X114838346Y-107200828D01*
X114838346Y-107096793D01*
X115186314Y-107096793D01*
X115225136Y-107164036D01*
X115296564Y-107235465D01*
X115326421Y-107252703D01*
X115355197Y-107271703D01*
X115569483Y-107343131D01*
X115593591Y-107344578D01*
X115616917Y-107350828D01*
X115759774Y-107350828D01*
X115783099Y-107344578D01*
X115807208Y-107343131D01*
X116021494Y-107271703D01*
X116050269Y-107252703D01*
X116080126Y-107235466D01*
X116114764Y-107200828D01*
X120895489Y-107200828D01*
X120915585Y-107275828D01*
X120970489Y-107330732D01*
X121045489Y-107350828D01*
X121120489Y-107330732D01*
X121175393Y-107275828D01*
X121195489Y-107200828D01*
X121609775Y-107200828D01*
X121629871Y-107275828D01*
X121684775Y-107330732D01*
X121759775Y-107350828D01*
X121834775Y-107330732D01*
X121889679Y-107275828D01*
X121909775Y-107200828D01*
X121909775Y-106376961D01*
X122123848Y-106835690D01*
X122132355Y-106845822D01*
X122136877Y-106858257D01*
X122156932Y-106875095D01*
X122173775Y-106895156D01*
X122186211Y-106899678D01*
X122196342Y-106908184D01*
X122222126Y-106912738D01*
X122246746Y-106921691D01*
X122259777Y-106919389D01*
X122272804Y-106921690D01*
X122297412Y-106912741D01*
X122323208Y-106908185D01*
X122333342Y-106899675D01*
X122345775Y-106895155D01*
X122362612Y-106875100D01*
X122382673Y-106858258D01*
X122387195Y-106845821D01*
X122395702Y-106835690D01*
X122609775Y-106376962D01*
X122609775Y-107200828D01*
X122629871Y-107275828D01*
X122684775Y-107330732D01*
X122759775Y-107350828D01*
X122834775Y-107330732D01*
X122889679Y-107275828D01*
X122901717Y-107230900D01*
X123112819Y-107230900D01*
X123147544Y-107300349D01*
X123212340Y-107343130D01*
X123289846Y-107347783D01*
X123359295Y-107313058D01*
X123402076Y-107248262D01*
X123510745Y-106922257D01*
X124008804Y-106922257D01*
X124117472Y-107248262D01*
X124160253Y-107313059D01*
X124229702Y-107347783D01*
X124307208Y-107343131D01*
X124372005Y-107300349D01*
X124406729Y-107230900D01*
X124402077Y-107153394D01*
X124084554Y-106200828D01*
X124538346Y-106200828D01*
X124547269Y-106234131D01*
X124554182Y-106267910D01*
X124625610Y-106410767D01*
X124641633Y-106428836D01*
X124653708Y-106449751D01*
X124725137Y-106521180D01*
X124746051Y-106533254D01*
X124764121Y-106549278D01*
X124906979Y-106620706D01*
X124940754Y-106627617D01*
X124974060Y-106636542D01*
X125395489Y-106636542D01*
X125395489Y-107200828D01*
X125415585Y-107275828D01*
X125470489Y-107330732D01*
X125545489Y-107350828D01*
X125620489Y-107330732D01*
X125675393Y-107275828D01*
X125695489Y-107200828D01*
X125695489Y-105700828D01*
X125675393Y-105625828D01*
X125620489Y-105570924D01*
X125545489Y-105550828D01*
X124974060Y-105550828D01*
X124940759Y-105559750D01*
X124906977Y-105566664D01*
X124764121Y-105638093D01*
X124746052Y-105654115D01*
X124725138Y-105666190D01*
X124653709Y-105737618D01*
X124641633Y-105758533D01*
X124625610Y-105776603D01*
X124554182Y-105919460D01*
X124547269Y-105953238D01*
X124538346Y-105986542D01*
X124538346Y-106200828D01*
X124084554Y-106200828D01*
X123902076Y-105653394D01*
X123885480Y-105628258D01*
X123872005Y-105601307D01*
X123864348Y-105596251D01*
X123859295Y-105588598D01*
X123832352Y-105575126D01*
X123807208Y-105558525D01*
X123798050Y-105557975D01*
X123789846Y-105553873D01*
X123759777Y-105555678D01*
X123729702Y-105553873D01*
X123721495Y-105557976D01*
X123712340Y-105558526D01*
X123687204Y-105575121D01*
X123660253Y-105588597D01*
X123655197Y-105596253D01*
X123647544Y-105601307D01*
X123634070Y-105628253D01*
X123617472Y-105653394D01*
X123117472Y-107153394D01*
X123112819Y-107230900D01*
X122901717Y-107230900D01*
X122909775Y-107200828D01*
X122909775Y-105700828D01*
X122908046Y-105694375D01*
X122909208Y-105687798D01*
X122898095Y-105657237D01*
X122889679Y-105625828D01*
X122884955Y-105621104D01*
X122882673Y-105614827D01*
X122857766Y-105593915D01*
X122834775Y-105570924D01*
X122828324Y-105569195D01*
X122823208Y-105564900D01*
X122791177Y-105559242D01*
X122759775Y-105550828D01*
X122753325Y-105552556D01*
X122746746Y-105551394D01*
X122716178Y-105562509D01*
X122684775Y-105570924D01*
X122680052Y-105575646D01*
X122673775Y-105577929D01*
X122652865Y-105602833D01*
X122629871Y-105625828D01*
X122628142Y-105632280D01*
X122623848Y-105637395D01*
X122259775Y-106417551D01*
X121895702Y-105637395D01*
X121891407Y-105632280D01*
X121889679Y-105625828D01*
X121866681Y-105602830D01*
X121845775Y-105577930D01*
X121839498Y-105575647D01*
X121834775Y-105570924D01*
X121803361Y-105562506D01*
X121772804Y-105551395D01*
X121766226Y-105552556D01*
X121759775Y-105550828D01*
X121728361Y-105559245D01*
X121696342Y-105564901D01*
X121691227Y-105569195D01*
X121684775Y-105570924D01*
X121661777Y-105593921D01*
X121636877Y-105614828D01*
X121634594Y-105621104D01*
X121629871Y-105625828D01*
X121621453Y-105657241D01*
X121610342Y-105687799D01*
X121611503Y-105694376D01*
X121609775Y-105700828D01*
X121609775Y-107200828D01*
X121195489Y-107200828D01*
X121195489Y-105700828D01*
X121175393Y-105625828D01*
X121120489Y-105570924D01*
X121045489Y-105550828D01*
X120970489Y-105570924D01*
X120915585Y-105625828D01*
X120895489Y-105700828D01*
X120895489Y-107200828D01*
X116114764Y-107200828D01*
X116222983Y-107092608D01*
X116235058Y-107071693D01*
X116251081Y-107053624D01*
X116322510Y-106910768D01*
X116325830Y-106894541D01*
X116333867Y-106880065D01*
X116396533Y-106629400D01*
X117895489Y-106629400D01*
X117915585Y-106704400D01*
X117970489Y-106759304D01*
X118045489Y-106779400D01*
X119188346Y-106779400D01*
X119263346Y-106759304D01*
X119318250Y-106704400D01*
X119338346Y-106629400D01*
X119318250Y-106554400D01*
X119263346Y-106499496D01*
X119188346Y-106479400D01*
X118045489Y-106479400D01*
X117970489Y-106499496D01*
X117915585Y-106554400D01*
X117895489Y-106629400D01*
X116396533Y-106629400D01*
X116405295Y-106594351D01*
X116404983Y-106575848D01*
X116409774Y-106557971D01*
X116409774Y-106343685D01*
X116404983Y-106325807D01*
X116405295Y-106307305D01*
X116333867Y-106021591D01*
X116325830Y-106007114D01*
X116322510Y-105990888D01*
X116251081Y-105848032D01*
X116235058Y-105829963D01*
X116222983Y-105809048D01*
X116080126Y-105666191D01*
X116050269Y-105648953D01*
X116021494Y-105629954D01*
X115807208Y-105558526D01*
X115783102Y-105557078D01*
X115759774Y-105550828D01*
X115616917Y-105550828D01*
X115593588Y-105557078D01*
X115569482Y-105558526D01*
X115355197Y-105629955D01*
X115326424Y-105648951D01*
X115296565Y-105666191D01*
X115225137Y-105737619D01*
X115186314Y-105804862D01*
X115186314Y-105882508D01*
X115225137Y-105949751D01*
X115292380Y-105988574D01*
X115370026Y-105988574D01*
X115437269Y-105949751D01*
X115483658Y-105903361D01*
X115641260Y-105850828D01*
X115735434Y-105850828D01*
X115893032Y-105903361D01*
X115993639Y-106003968D01*
X116046818Y-106110327D01*
X116109774Y-106362148D01*
X116109774Y-106539507D01*
X116046818Y-106791328D01*
X115993639Y-106897688D01*
X115893033Y-106998294D01*
X115735431Y-107050828D01*
X115641260Y-107050828D01*
X115483657Y-106998294D01*
X115437270Y-106951906D01*
X115370027Y-106913082D01*
X115292381Y-106913082D01*
X115225138Y-106951904D01*
X115186314Y-107019147D01*
X115186314Y-107096793D01*
X114838346Y-107096793D01*
X114838346Y-105700828D01*
X114818250Y-105625828D01*
X114763346Y-105570924D01*
X114688346Y-105550828D01*
X114116917Y-105550828D01*
X114083616Y-105559750D01*
X114049834Y-105566664D01*
X113906978Y-105638093D01*
X113888909Y-105654115D01*
X113867995Y-105666190D01*
X113796566Y-105737618D01*
X113784490Y-105758533D01*
X113768467Y-105776603D01*
X113697039Y-105919460D01*
X113690126Y-105953238D01*
X113681203Y-105986542D01*
X113681203Y-106200828D01*
X113227411Y-106200828D01*
X113044933Y-105653394D01*
X113028337Y-105628258D01*
X113014862Y-105601307D01*
X113007205Y-105596251D01*
X113002152Y-105588598D01*
X112975209Y-105575126D01*
X112950065Y-105558525D01*
X112940907Y-105557975D01*
X112932703Y-105553873D01*
X112902634Y-105555678D01*
X112872559Y-105553873D01*
X112864352Y-105557976D01*
X112855197Y-105558526D01*
X112830061Y-105575121D01*
X112803110Y-105588597D01*
X112798054Y-105596253D01*
X112790401Y-105601307D01*
X112776927Y-105628253D01*
X112760329Y-105653394D01*
X112260329Y-107153394D01*
X112255676Y-107230900D01*
X111798978Y-107230900D01*
X111937269Y-107092608D01*
X111949344Y-107071693D01*
X111965367Y-107053624D01*
X112036796Y-106910768D01*
X112040116Y-106894541D01*
X112048153Y-106880065D01*
X112119581Y-106594351D01*
X112119269Y-106575848D01*
X112124060Y-106557971D01*
X112124060Y-106343685D01*
X112119269Y-106325807D01*
X112119581Y-106307305D01*
X112048153Y-106021591D01*
X112040116Y-106007114D01*
X112036796Y-105990888D01*
X111965367Y-105848032D01*
X111949344Y-105829963D01*
X111937269Y-105809048D01*
X111794412Y-105666191D01*
X111764555Y-105648953D01*
X111735780Y-105629954D01*
X111521494Y-105558526D01*
X111497388Y-105557078D01*
X111474060Y-105550828D01*
X111331203Y-105550828D01*
X111307874Y-105557078D01*
X111283768Y-105558526D01*
X111069483Y-105629955D01*
X111040710Y-105648951D01*
X111010851Y-105666191D01*
X110939423Y-105737619D01*
X110900600Y-105804862D01*
X110900600Y-105882508D01*
X110939423Y-105949751D01*
X111006666Y-105988574D01*
X111084312Y-105988574D01*
X111151555Y-105949751D01*
X111197944Y-105903361D01*
X111355546Y-105850828D01*
X111449720Y-105850828D01*
X111607318Y-105903361D01*
X111707925Y-106003968D01*
X111761104Y-106110327D01*
X111824060Y-106362148D01*
X111824060Y-106539507D01*
X111761104Y-106791328D01*
X111707925Y-106897688D01*
X111607319Y-106998294D01*
X111449717Y-107050828D01*
X111355546Y-107050828D01*
X111197943Y-106998294D01*
X111151556Y-106951906D01*
X111084313Y-106913082D01*
X111006667Y-106913082D01*
X110939424Y-106951904D01*
X110900600Y-107019147D01*
X110900600Y-107096793D01*
X109509871Y-107096793D01*
X109508698Y-107094762D01*
X108676593Y-106262657D01*
X108624060Y-106105058D01*
X108624060Y-106021952D01*
X108668767Y-105932538D01*
X108705771Y-105895535D01*
X108795185Y-105850828D01*
X109081508Y-105850828D01*
X109170921Y-105895535D01*
X109225137Y-105949751D01*
X109292380Y-105988574D01*
X109370026Y-105988574D01*
X109437269Y-105949751D01*
X109476092Y-105882508D01*
X109476092Y-105804862D01*
X109437269Y-105737619D01*
X109365841Y-105666191D01*
X109344925Y-105654115D01*
X109326857Y-105638093D01*
X109184000Y-105566664D01*
X109150219Y-105559751D01*
X109116918Y-105550828D01*
X108759775Y-105550828D01*
X108726474Y-105559750D01*
X108692692Y-105566664D01*
X108549836Y-105638093D01*
X108531767Y-105654115D01*
X108510853Y-105666190D01*
X108439424Y-105737618D01*
X108427347Y-105758534D01*
X108411325Y-105776603D01*
X108339896Y-105919460D01*
X108332983Y-105953240D01*
X108324060Y-105986542D01*
X108324060Y-106129400D01*
X108330310Y-106152728D01*
X108331758Y-106176835D01*
X108403187Y-106391119D01*
X108422178Y-106419882D01*
X108439423Y-106449751D01*
X109040500Y-107050828D01*
X108474060Y-107050828D01*
X108399060Y-107070924D01*
X108344156Y-107125828D01*
X108324060Y-107200828D01*
X107829051Y-107200828D01*
X107865842Y-107164036D01*
X107877916Y-107143121D01*
X107893939Y-107125053D01*
X107965368Y-106982197D01*
X107968688Y-106965970D01*
X107976725Y-106951494D01*
X108048153Y-106665780D01*
X108047841Y-106647277D01*
X108052632Y-106629400D01*
X108052632Y-106272257D01*
X108047841Y-106254379D01*
X108048153Y-106235877D01*
X107976725Y-105950162D01*
X107968688Y-105935685D01*
X107965368Y-105919459D01*
X107893939Y-105776603D01*
X107877916Y-105758534D01*
X107865841Y-105737619D01*
X107794413Y-105666191D01*
X107773498Y-105654116D01*
X107755429Y-105638093D01*
X107612571Y-105566664D01*
X107578790Y-105559751D01*
X107545489Y-105550828D01*
X107402632Y-105550828D01*
X107369331Y-105559750D01*
X107335549Y-105566664D01*
X107192693Y-105638093D01*
X107174624Y-105654115D01*
X107153709Y-105666191D01*
X107082281Y-105737619D01*
X107070205Y-105758534D01*
X107054183Y-105776603D01*
X106982754Y-105919460D01*
X106979433Y-105935684D01*
X106971397Y-105950162D01*
X106899968Y-106235877D01*
X106900279Y-106254380D01*
X106895489Y-106272257D01*
X106895489Y-106629400D01*
X106186194Y-106629400D01*
X105819451Y-106262657D01*
X105766918Y-106105058D01*
X105766918Y-106021952D01*
X105811625Y-105932538D01*
X105848629Y-105895535D01*
X105938043Y-105850828D01*
X106224366Y-105850828D01*
X106313779Y-105895535D01*
X106367995Y-105949751D01*
X106435238Y-105988574D01*
X106512884Y-105988574D01*
X106580127Y-105949751D01*
X106618950Y-105882508D01*
X106618950Y-105804862D01*
X106580127Y-105737619D01*
X106508699Y-105666191D01*
X106487783Y-105654115D01*
X106469715Y-105638093D01*
X106326858Y-105566664D01*
X106293077Y-105559751D01*
X106259776Y-105550828D01*
X105902633Y-105550828D01*
X105869332Y-105559750D01*
X105835550Y-105566664D01*
X105692694Y-105638093D01*
X105674625Y-105654115D01*
X105653711Y-105666190D01*
X105582282Y-105737618D01*
X105570205Y-105758534D01*
X105554183Y-105776603D01*
X105482754Y-105919460D01*
X105475841Y-105953240D01*
X105466918Y-105986542D01*
X105466918Y-106129400D01*
X105473168Y-106152728D01*
X105474616Y-106176835D01*
X105546045Y-106391119D01*
X105565036Y-106419882D01*
X105582281Y-106449751D01*
X106183358Y-107050828D01*
X105616918Y-107050828D01*
X105541918Y-107070924D01*
X105487014Y-107125828D01*
X105466918Y-107200828D01*
X104481205Y-107200828D01*
X104481205Y-106850828D01*
X105045490Y-106850828D01*
X105068820Y-106844576D01*
X105092924Y-106843130D01*
X105105699Y-106834695D01*
X105120490Y-106830732D01*
X105137569Y-106813652D01*
X105157720Y-106800348D01*
X105164566Y-106786655D01*
X105175394Y-106775828D01*
X105181644Y-106752500D01*
X105192445Y-106730900D01*
X105191527Y-106715616D01*
X105195490Y-106700828D01*
X105189239Y-106677499D01*
X105187792Y-106653393D01*
X104830649Y-105581966D01*
X104787868Y-105517169D01*
X104718419Y-105482445D01*
X104640913Y-105487098D01*
X104576116Y-105529879D01*
X104541392Y-105599328D01*
X104546045Y-105676834D01*
X104837376Y-106550828D01*
X104481205Y-106550828D01*
X104481205Y-106200828D01*
X104461109Y-106125828D01*
X104406205Y-106070924D01*
X104331205Y-106050828D01*
X104256205Y-106070924D01*
X104201301Y-106125828D01*
X104181205Y-106200828D01*
X104181205Y-106550828D01*
X104116919Y-106550828D01*
X104041919Y-106570924D01*
X103987015Y-106625828D01*
X103966919Y-106700828D01*
X102533495Y-106700828D01*
X102552634Y-106629400D01*
X102532538Y-106554400D01*
X102477634Y-106499496D01*
X102402634Y-106479400D01*
X101259777Y-106479400D01*
X101184777Y-106499496D01*
X101129873Y-106554400D01*
X101109777Y-106629400D01*
X99465509Y-106629400D01*
X99759222Y-105748262D01*
X99763874Y-105670756D01*
X99729150Y-105601307D01*
X99664353Y-105558525D01*
X99586847Y-105553873D01*
X99517398Y-105588597D01*
X99474617Y-105653394D01*
X99116919Y-106726486D01*
X98759221Y-105653394D01*
X98716440Y-105588598D01*
X98646991Y-105553873D01*
X98569485Y-105558526D01*
X98504689Y-105601307D01*
X98469964Y-105670756D01*
X97920007Y-105670756D01*
X97884585Y-105617623D01*
X97858930Y-105595077D01*
X97834777Y-105570924D01*
X97829985Y-105569640D01*
X97826261Y-105566367D01*
X97792773Y-105559669D01*
X97759777Y-105550828D01*
X97754986Y-105552111D01*
X97750123Y-105551139D01*
X97717767Y-105562084D01*
X97684777Y-105570924D01*
X97681270Y-105574430D01*
X97676572Y-105576020D01*
X97654026Y-105601674D01*
X97629873Y-105625828D01*
X97628589Y-105630619D01*
X97625316Y-105634344D01*
X97618618Y-105667831D01*
X97609777Y-105700828D01*
X97609777Y-107050828D01*
X97331205Y-107050828D01*
X97256205Y-107070924D01*
X97201301Y-107125828D01*
X97181205Y-107200828D01*
X96885841Y-107200828D01*
X96904666Y-107168224D01*
X96904666Y-107090578D01*
X96904666Y-107090577D01*
X96865843Y-107023334D01*
X96794416Y-106951906D01*
X96794415Y-106951905D01*
X96777313Y-106942031D01*
X96763349Y-106928067D01*
X96744275Y-106922956D01*
X96727173Y-106913082D01*
X96727172Y-106913082D01*
X96707424Y-106913082D01*
X96688349Y-106907971D01*
X96669274Y-106913082D01*
X96649526Y-106913082D01*
X96632423Y-106922955D01*
X96613349Y-106928067D01*
X96599385Y-106942030D01*
X96582284Y-106951904D01*
X96582283Y-106951904D01*
X96582283Y-106951905D01*
X96510854Y-107023334D01*
X96472031Y-107090577D01*
X96472031Y-107090578D01*
X96472031Y-107168224D01*
X96147370Y-107168224D01*
X96151558Y-107164036D01*
X96190380Y-107096793D01*
X96190380Y-107019147D01*
X96151556Y-106951904D01*
X96084313Y-106913082D01*
X96006667Y-106913082D01*
X95939424Y-106951906D01*
X95885207Y-107006122D01*
X95795796Y-107050828D01*
X95509473Y-107050828D01*
X95420059Y-107006121D01*
X95383055Y-106969117D01*
X95338348Y-106879703D01*
X95338348Y-106593381D01*
X95383055Y-106503967D01*
X95420059Y-106466963D01*
X95509473Y-106422257D01*
X95795796Y-106422257D01*
X95885207Y-106466962D01*
X95939424Y-106521179D01*
X95962851Y-106534705D01*
X95983789Y-106551836D01*
X95995973Y-106553828D01*
X96006667Y-106560003D01*
X96033722Y-106560003D01*
X96060416Y-106564369D01*
X96071964Y-106560003D01*
X96084313Y-106560003D01*
X96107742Y-106546476D01*
X96133045Y-106536910D01*
X96140863Y-106527354D01*
X96151556Y-106521181D01*
X96165083Y-106497751D01*
X96182213Y-106476815D01*
X96184205Y-106464631D01*
X96190380Y-106453938D01*
X96190380Y-106426885D01*
X96194747Y-106400188D01*
X96123319Y-105685903D01*
X96112143Y-105656344D01*
X96103967Y-105625828D01*
X96098563Y-105620424D01*
X96095860Y-105613274D01*
X96071402Y-105593263D01*
X96049063Y-105570924D01*
X96041680Y-105568945D01*
X96035765Y-105564106D01*
X96004580Y-105559005D01*
X95974063Y-105550828D01*
X95259777Y-105550828D01*
X95184777Y-105570924D01*
X95129873Y-105625828D01*
X95109777Y-105700828D01*
X95129873Y-105775828D01*
X95184777Y-105830732D01*
X95259777Y-105850828D01*
X95838314Y-105850828D01*
X95866387Y-106131564D01*
X95864509Y-106131180D01*
X95831206Y-106122257D01*
X95474063Y-106122257D01*
X95440757Y-106131181D01*
X95406982Y-106138093D01*
X95264124Y-106209521D01*
X95246054Y-106225544D01*
X95225140Y-106237619D01*
X95153711Y-106309048D01*
X95141635Y-106329963D01*
X95125613Y-106348032D01*
X95054184Y-106490889D01*
X95047271Y-106524669D01*
X95038348Y-106557971D01*
X95038348Y-106915114D01*
X94824062Y-106915114D01*
X94824062Y-105268159D01*
X125909775Y-105268159D01*
X125909775Y-107565114D01*
G37*
D11*
X88000000Y-90000000D03*
D12*
X90000000Y-90000000D03*
X92000000Y-90000000D03*
X94000000Y-90000000D03*
D11*
X88000000Y-73485000D03*
D12*
X90000000Y-73485000D03*
X92000000Y-73485000D03*
X94000000Y-73485000D03*
D11*
X88000000Y-98000000D03*
D12*
X90000000Y-98000000D03*
X92000000Y-98000000D03*
X94000000Y-98000000D03*
D13*
X137170000Y-54100000D03*
D14*
X132170000Y-54100000D03*
D15*
X110650000Y-89150000D03*
D16*
X110650000Y-99310000D03*
D17*
X131900000Y-90600000D03*
D18*
X131900000Y-88600000D03*
X131900000Y-86600000D03*
X131900000Y-84600000D03*
D19*
X127900000Y-91200000D03*
X127900000Y-86200000D03*
D11*
X88000000Y-82000000D03*
D12*
X90000000Y-82000000D03*
X92000000Y-82000000D03*
X94000000Y-82000000D03*
D20*
X114160000Y-57625000D03*
D21*
X116700000Y-57625000D03*
X119240000Y-57625000D03*
X121780000Y-57625000D03*
X124320000Y-57625000D03*
X126860000Y-57625000D03*
X129400000Y-57625000D03*
X129400000Y-50005000D03*
X126860000Y-50005000D03*
X124320000Y-50005000D03*
X121780000Y-50005000D03*
X119240000Y-50005000D03*
X116700000Y-50005000D03*
X114160000Y-50005000D03*
D19*
X103075000Y-96250000D03*
X103075000Y-91250000D03*
D22*
X112560000Y-73440000D03*
D23*
X110020000Y-73440000D03*
X107480000Y-73440000D03*
X104940000Y-73440000D03*
X104940000Y-81060000D03*
X107480000Y-81060000D03*
X110020000Y-81060000D03*
X112560000Y-81060000D03*
D24*
X125500000Y-45100000D03*
D25*
X128040000Y-45100000D03*
D26*
X86000000Y-45000000D03*
D19*
X117250000Y-83650000D03*
X117250000Y-88650000D03*
D26*
X136000000Y-105000000D03*
D19*
X116050000Y-76050000D03*
X116050000Y-81050000D03*
D11*
X88000000Y-65000000D03*
D12*
X90000000Y-65000000D03*
X92000000Y-65000000D03*
X94000000Y-65000000D03*
D27*
X126400000Y-96800000D03*
D28*
X126400000Y-99340000D03*
X126400000Y-101880000D03*
D29*
X88000000Y-57460000D03*
D30*
X88000000Y-60000000D03*
D31*
X99095000Y-70895000D03*
X99095000Y-73435000D03*
X99095000Y-75975000D03*
X99095000Y-78515000D03*
X99095000Y-81055000D03*
X99095000Y-83595000D03*
X99095000Y-86135000D03*
X99095000Y-88675000D03*
X99095000Y-91215000D03*
X99095000Y-93755000D03*
X99095000Y-96295000D03*
X121955000Y-96295000D03*
X121955000Y-93755000D03*
X121955000Y-91215000D03*
X121955000Y-88675000D03*
X121955000Y-86135000D03*
X121955000Y-83595000D03*
X121955000Y-81055000D03*
X121955000Y-78515000D03*
X121955000Y-75975000D03*
X121955000Y-73435000D03*
X121955000Y-70895000D03*
D26*
X86000000Y-105000000D03*
D32*
X128700000Y-77200000D03*
D33*
X128700000Y-72120000D03*
D11*
X93800000Y-45000000D03*
D12*
X95800000Y-45000000D03*
X97800000Y-45000000D03*
X99800000Y-45000000D03*
D29*
X88000000Y-50757500D03*
D30*
X88000000Y-53297500D03*
D26*
X136000000Y-45000000D03*
D29*
X133100000Y-63760000D03*
D30*
X133100000Y-66300000D03*
D11*
X105300000Y-45000000D03*
D12*
X107300000Y-45000000D03*
X109300000Y-45000000D03*
X111300000Y-45000000D03*
D15*
X113950000Y-96630000D03*
D16*
X113950000Y-86470000D03*
D24*
X117800000Y-45100000D03*
D25*
X120340000Y-45100000D03*
D34*
X111300000Y-51400000D03*
X94500000Y-60060000D03*
X103550000Y-60060000D03*
X103500000Y-51350000D03*
X96500000Y-94400000D03*
X92000000Y-94400000D03*
X96900000Y-78500000D03*
X88000000Y-78400000D03*
X90000000Y-86300000D03*
X96500000Y-86300000D03*
D35*
X133100000Y-66300000D02*
X133100000Y-67720000D01*
X133100000Y-67720000D02*
X128700000Y-72120000D01*
X132170000Y-54100000D02*
X132170000Y-59880000D01*
X125550000Y-66500000D02*
X125550000Y-74050000D01*
X132170000Y-59880000D02*
X125550000Y-66500000D01*
X125550000Y-74050000D02*
X128700000Y-77200000D01*
D36*
X121955000Y-78515000D02*
X122885000Y-78515000D01*
X124300000Y-62985660D02*
X128110000Y-59175660D01*
X122885000Y-78515000D02*
X124300000Y-77100000D01*
X124300000Y-77100000D02*
X124300000Y-62985660D01*
X128110000Y-59175660D02*
X128110000Y-56135000D01*
X128110000Y-56135000D02*
X127730000Y-55755000D01*
X127730000Y-55755000D02*
X124670000Y-55755000D01*
X124670000Y-55755000D02*
X124320000Y-56105000D01*
X124320000Y-56105000D02*
X124320000Y-57625000D01*
X120477000Y-79777000D02*
X123627000Y-79777000D01*
X123455000Y-75155000D02*
X123455000Y-76884340D01*
X119800000Y-79100000D02*
X120477000Y-79777000D01*
X119800000Y-77900000D02*
X119800000Y-79100000D01*
X123086340Y-77253000D02*
X120447000Y-77253000D01*
X120447000Y-77253000D02*
X119800000Y-77900000D01*
X123455000Y-76884340D02*
X123086340Y-77253000D01*
X121955000Y-70895000D02*
X120805000Y-70895000D01*
X122843000Y-84857000D02*
X121043000Y-84857000D01*
X123013000Y-74713000D02*
X123455000Y-75155000D01*
X120200000Y-74300000D02*
X120613000Y-74713000D01*
X120613000Y-74713000D02*
X123013000Y-74713000D01*
X124200000Y-83500000D02*
X122843000Y-84857000D01*
X120200000Y-71500000D02*
X120200000Y-74300000D01*
X120805000Y-70895000D02*
X120200000Y-71500000D01*
X123627000Y-79777000D02*
X124200000Y-80350000D01*
X124200000Y-80350000D02*
X124200000Y-83500000D01*
X121043000Y-84857000D02*
X117250000Y-88650000D01*
X121955000Y-73435000D02*
X122865000Y-73435000D01*
X122865000Y-73435000D02*
X123500000Y-72800000D01*
X123500000Y-72800000D02*
X123500000Y-62725000D01*
X123500000Y-62725000D02*
X126860000Y-59365000D01*
X126860000Y-59365000D02*
X126860000Y-57625000D01*
D37*
X98395000Y-96295000D02*
X96500000Y-94400000D01*
X103500000Y-51350000D02*
X103500000Y-50200000D01*
X99095000Y-96295000D02*
X98395000Y-96295000D01*
X108705000Y-101880000D02*
X103075000Y-96250000D01*
X126400000Y-101880000D02*
X108705000Y-101880000D01*
X103500000Y-51350000D02*
X103500000Y-60010000D01*
X92000000Y-65000000D02*
X92000000Y-94400000D01*
X103500000Y-50200000D02*
X99800000Y-46500000D01*
X92000000Y-62560000D02*
X94500000Y-60060000D01*
X103500000Y-60010000D02*
X103550000Y-60060000D01*
X103030000Y-96295000D02*
X103075000Y-96250000D01*
X111300000Y-51400000D02*
X111300000Y-45000000D01*
X92000000Y-65000000D02*
X92000000Y-62560000D01*
X92000000Y-94400000D02*
X92000000Y-98000000D01*
X99095000Y-96295000D02*
X103030000Y-96295000D01*
X99800000Y-46500000D02*
X99800000Y-45000000D01*
X85500000Y-59600000D02*
X85900000Y-60000000D01*
X90000000Y-60000000D02*
X91540000Y-58460000D01*
X139500000Y-92600000D02*
X132760000Y-99340000D01*
D36*
X104940000Y-62960000D02*
X104940000Y-73440000D01*
D37*
X85500000Y-50100000D02*
X85500000Y-53500000D01*
D36*
X105600000Y-45300000D02*
X105600000Y-62300000D01*
D37*
X85500000Y-53500000D02*
X85500000Y-59600000D01*
X132760000Y-100940000D02*
X129500000Y-104200000D01*
X110680000Y-99340000D02*
X110650000Y-99310000D01*
X114160000Y-44060000D02*
X113200000Y-43100000D01*
D36*
X110050000Y-76250000D02*
X115850000Y-76250000D01*
D37*
X132500000Y-47000000D02*
X134000000Y-48500000D01*
X110650000Y-96150000D02*
X110650000Y-99310000D01*
D36*
X108400000Y-70900000D02*
X108770000Y-71270000D01*
D37*
X132760000Y-99340000D02*
X132760000Y-100940000D01*
X132760000Y-99340000D02*
X126400000Y-99340000D01*
X131900000Y-90600000D02*
X128500000Y-90600000D01*
X89900000Y-48900000D02*
X86700000Y-48900000D01*
X125300000Y-79900000D02*
X123699999Y-79900000D01*
X114160000Y-57625000D02*
X114160000Y-68160000D01*
D35*
X131825000Y-53755000D02*
X114215000Y-53755000D01*
D37*
X105300000Y-45000000D02*
X105300000Y-43100000D01*
D35*
X114160000Y-54725000D02*
X114160000Y-53700000D01*
D37*
X113200000Y-43100000D02*
X129421320Y-43100000D01*
X129421320Y-43100000D02*
X132500000Y-46178680D01*
D36*
X105600000Y-62300000D02*
X104940000Y-62960000D01*
D37*
X114160000Y-50005000D02*
X114160000Y-44060000D01*
X85702500Y-53297500D02*
X85500000Y-53500000D01*
X93800000Y-45000000D02*
X89900000Y-48900000D01*
D35*
X132170000Y-54100000D02*
X131825000Y-53755000D01*
D37*
X99095000Y-62295000D02*
X99095000Y-70895000D01*
X85900000Y-60000000D02*
X88000000Y-60000000D01*
X128000000Y-77200000D02*
X125300000Y-79900000D01*
X117250000Y-88650000D02*
X110650000Y-95250000D01*
X110650000Y-95250000D02*
X110650000Y-96150000D01*
X121955000Y-91215000D02*
X119815000Y-91215000D01*
X103040000Y-91215000D02*
X103075000Y-91250000D01*
X139500000Y-52700000D02*
X139500000Y-92600000D01*
X86700000Y-48900000D02*
X85500000Y-50100000D01*
X119815000Y-91215000D02*
X117250000Y-88650000D01*
X126400000Y-99340000D02*
X110680000Y-99340000D01*
D36*
X115850000Y-76250000D02*
X116050000Y-76050000D01*
X104940000Y-70900000D02*
X108400000Y-70900000D01*
D37*
X94095000Y-70895000D02*
X94000000Y-70800000D01*
X128500000Y-90600000D02*
X127900000Y-91200000D01*
X124285000Y-91215000D02*
X124300000Y-91200000D01*
X99095000Y-70895000D02*
X94095000Y-70895000D01*
X138000000Y-52000000D02*
X138800000Y-52000000D01*
D35*
X114160000Y-57625000D02*
X114160000Y-54725000D01*
X114215000Y-53755000D02*
X114160000Y-53700000D01*
D37*
X114160000Y-68160000D02*
X116050000Y-70050000D01*
X94000000Y-100800000D02*
X94000000Y-98000000D01*
X94185000Y-91215000D02*
X94000000Y-91400000D01*
X138800000Y-52000000D02*
X139500000Y-52700000D01*
X88000000Y-60000000D02*
X90000000Y-60000000D01*
X99095000Y-91215000D02*
X94185000Y-91215000D01*
X93800000Y-43500000D02*
X93800000Y-45000000D01*
X91540000Y-58460000D02*
X95260000Y-58460000D01*
X94200000Y-43100000D02*
X93800000Y-43500000D01*
D36*
X108770000Y-71270000D02*
X108770000Y-74970000D01*
D37*
X132500000Y-46178680D02*
X132500000Y-47000000D01*
X99095000Y-91215000D02*
X103040000Y-91215000D01*
D36*
X108770000Y-74970000D02*
X110050000Y-76250000D01*
D37*
X94000000Y-70800000D02*
X94000000Y-91400000D01*
X134000000Y-48500000D02*
X134500000Y-48500000D01*
X95260000Y-58460000D02*
X99095000Y-62295000D01*
X124300000Y-91200000D02*
X127900000Y-91200000D01*
X113200000Y-43100000D02*
X105300000Y-43100000D01*
X105300000Y-43100000D02*
X94200000Y-43100000D01*
X94000000Y-91400000D02*
X94000000Y-98000000D01*
X134500000Y-48500000D02*
X138000000Y-52000000D01*
X116050000Y-70050000D02*
X116050000Y-76050000D01*
X94000000Y-65000000D02*
X94000000Y-70800000D01*
D35*
X114160000Y-53700000D02*
X114160000Y-52425000D01*
D37*
X88000000Y-53297500D02*
X85702500Y-53297500D01*
D36*
X105300000Y-45000000D02*
X105600000Y-45300000D01*
D37*
X129500000Y-104200000D02*
X97400000Y-104200000D01*
X97400000Y-104200000D02*
X94000000Y-100800000D01*
D35*
X114160000Y-52425000D02*
X114160000Y-50005000D01*
D37*
X121955000Y-91215000D02*
X124285000Y-91215000D01*
D35*
X125500000Y-47356573D02*
X125500000Y-45100000D01*
X124320000Y-48536573D02*
X125500000Y-47356573D01*
X124320000Y-50005000D02*
X124320000Y-48536573D01*
X126860000Y-50005000D02*
X126860000Y-48825000D01*
X128000000Y-45140000D02*
X128040000Y-45100000D01*
X126860000Y-48825000D02*
X128000000Y-47685000D01*
X128000000Y-47685000D02*
X128000000Y-45140000D01*
D36*
X101400000Y-52400000D02*
X95800000Y-46800000D01*
X102095000Y-74645000D02*
X102095000Y-61759466D01*
X102095000Y-61759466D02*
X101400000Y-61064466D01*
X95800000Y-46800000D02*
X95800000Y-45000000D01*
X107480000Y-80030000D02*
X102095000Y-74645000D01*
X107480000Y-81060000D02*
X107480000Y-80030000D01*
X101400000Y-61064466D02*
X101400000Y-52400000D01*
X107075000Y-77775000D02*
X106285660Y-77775000D01*
X97800000Y-47700000D02*
X97800000Y-45000000D01*
X110020000Y-80720000D02*
X107075000Y-77775000D01*
X102845000Y-61448806D02*
X102200000Y-60803806D01*
X102845000Y-74334340D02*
X102845000Y-61448806D01*
X102200000Y-52100000D02*
X97800000Y-47700000D01*
X106285660Y-77775000D02*
X102845000Y-74334340D01*
X110020000Y-81060000D02*
X110020000Y-80720000D01*
X102200000Y-60803806D02*
X102200000Y-52100000D01*
D35*
X117800000Y-46325000D02*
X117800000Y-45100000D01*
X119240000Y-50005000D02*
X119240000Y-47765000D01*
X119240000Y-47765000D02*
X117800000Y-46325000D01*
X121780000Y-47605000D02*
X120340000Y-46165000D01*
X121780000Y-50005000D02*
X121780000Y-47605000D01*
X120340000Y-46165000D02*
X120340000Y-45100000D01*
D36*
X108550000Y-68250000D02*
X110020000Y-69720000D01*
X107300000Y-47200000D02*
X108550000Y-48450000D01*
X108550000Y-48450000D02*
X108550000Y-68250000D01*
X107300000Y-45000000D02*
X107300000Y-47200000D01*
X110020000Y-69720000D02*
X110020000Y-73440000D01*
X112560000Y-71199340D02*
X112560000Y-73440000D01*
X109300000Y-67939340D02*
X112560000Y-71199340D01*
X109300000Y-45000000D02*
X109300000Y-67939340D01*
D37*
X117250000Y-83650000D02*
X121900000Y-83650000D01*
X110650000Y-89150000D02*
X113330000Y-86470000D01*
X113330000Y-86470000D02*
X113950000Y-86470000D01*
X114430000Y-86470000D02*
X117250000Y-83650000D01*
X113950000Y-86470000D02*
X114430000Y-86470000D01*
X121900000Y-83650000D02*
X121955000Y-83595000D01*
D36*
X120455000Y-81055000D02*
X121955000Y-81055000D01*
X119240000Y-60685000D02*
X118700000Y-61225000D01*
X119240000Y-57625000D02*
X119240000Y-60685000D01*
X118700000Y-61225000D02*
X118700000Y-79300000D01*
X118700000Y-79300000D02*
X120455000Y-81055000D01*
X121955000Y-75975000D02*
X120765000Y-75975000D01*
X119450000Y-65310660D02*
X119450000Y-61535660D01*
X119450000Y-74660000D02*
X119450000Y-65310660D01*
X119450000Y-61535660D02*
X121780000Y-59205660D01*
X121780000Y-59205660D02*
X121780000Y-57625000D01*
X120765000Y-75975000D02*
X119450000Y-74660000D01*
D37*
X88000000Y-78400000D02*
X88000000Y-98000000D01*
D36*
X107050000Y-83450000D02*
X106190000Y-82590000D01*
X111270000Y-79000000D02*
X111270000Y-82530000D01*
X107480000Y-73440000D02*
X107480000Y-75210000D01*
X110350000Y-83450000D02*
X107050000Y-83450000D01*
X106190000Y-79990000D02*
X104715000Y-78515000D01*
X107480000Y-75210000D02*
X111270000Y-79000000D01*
D37*
X96915000Y-78515000D02*
X96900000Y-78500000D01*
X88000000Y-65000000D02*
X88000000Y-78400000D01*
D36*
X104715000Y-78515000D02*
X99095000Y-78515000D01*
X111270000Y-82530000D02*
X110350000Y-83450000D01*
D37*
X99095000Y-78515000D02*
X96915000Y-78515000D01*
D36*
X106190000Y-82590000D02*
X106190000Y-79990000D01*
D37*
X90000000Y-65000000D02*
X90000000Y-86300000D01*
D36*
X104940000Y-81060000D02*
X99100000Y-81060000D01*
D37*
X96500000Y-82500000D02*
X96500000Y-86300000D01*
X90000000Y-86300000D02*
X90000000Y-98000000D01*
X97945000Y-81055000D02*
X96500000Y-82500000D01*
X99095000Y-81055000D02*
X97945000Y-81055000D01*
D36*
X99100000Y-81060000D02*
X99095000Y-81055000D01*
D37*
X116050000Y-81050000D02*
X112570000Y-81050000D01*
X112560000Y-84540000D02*
X112560000Y-81060000D01*
D36*
X117950000Y-63600000D02*
X117950000Y-61250000D01*
X116700000Y-60000000D02*
X116700000Y-57625000D01*
D37*
X103345000Y-93755000D02*
X112560000Y-84540000D01*
D36*
X117950000Y-79150000D02*
X116050000Y-81050000D01*
X117895000Y-55005000D02*
X121500000Y-55005000D01*
X116700000Y-56200000D02*
X117895000Y-55005000D01*
X117950000Y-63600000D02*
X117950000Y-79150000D01*
X128380000Y-55005000D02*
X121500000Y-55005000D01*
X129400000Y-56025000D02*
X128380000Y-55005000D01*
X129400000Y-57625000D02*
X129400000Y-56025000D01*
D37*
X99095000Y-93755000D02*
X103345000Y-93755000D01*
D36*
X116700000Y-57625000D02*
X116700000Y-56200000D01*
D37*
X112570000Y-81050000D02*
X112560000Y-81060000D01*
D36*
X117950000Y-61250000D02*
X116700000Y-60000000D01*
X95674214Y-57460000D02*
X100595000Y-62380786D01*
X88000000Y-57460000D02*
X95674214Y-57460000D01*
X99965000Y-73435000D02*
X99095000Y-73435000D01*
X100595000Y-72805000D02*
X99965000Y-73435000D01*
X100595000Y-62380786D02*
X100595000Y-72805000D01*
D37*
X132700000Y-83000000D02*
X133600000Y-83900000D01*
X121955000Y-86135000D02*
X123863781Y-86135000D01*
X133600000Y-85900000D02*
X132900000Y-86600000D01*
X123863781Y-86135000D02*
X126998781Y-83000000D01*
X133600000Y-83900000D02*
X133600000Y-85900000D01*
X132900000Y-86600000D02*
X131900000Y-86600000D01*
X126998781Y-83000000D02*
X132700000Y-83000000D01*
X131900000Y-84600000D02*
X131850000Y-84550000D01*
X125600000Y-87300000D02*
X124225000Y-88675000D01*
X124225000Y-88675000D02*
X121955000Y-88675000D01*
X125600000Y-86166547D02*
X125600000Y-87300000D01*
X131850000Y-84550000D02*
X127216547Y-84550000D01*
X127216547Y-84550000D02*
X125600000Y-86166547D01*
D36*
X100325000Y-75975000D02*
X101345000Y-74955000D01*
X101345000Y-62070126D02*
X90032374Y-50757500D01*
X101345000Y-74955000D02*
X101345000Y-62070126D01*
X99095000Y-75975000D02*
X100325000Y-75975000D01*
X90032374Y-50757500D02*
X88000000Y-50757500D01*
X124500000Y-96800000D02*
X123240990Y-98059010D01*
D37*
X126400000Y-96800000D02*
X131300000Y-96800000D01*
D36*
X123240990Y-98059010D02*
X115379010Y-98059010D01*
D37*
X131300000Y-96800000D02*
X138000000Y-90100000D01*
X130300000Y-88600000D02*
X127900000Y-86200000D01*
X137170000Y-55570000D02*
X137170000Y-54100000D01*
X138000000Y-56400000D02*
X137170000Y-55570000D01*
D35*
X137170000Y-53295126D02*
X137170000Y-54100000D01*
D37*
X138000000Y-90100000D02*
X138000000Y-56400000D01*
D36*
X126400000Y-96800000D02*
X124500000Y-96800000D01*
D35*
X133879874Y-50005000D02*
X137170000Y-53295126D01*
D37*
X131900000Y-88600000D02*
X130300000Y-88600000D01*
D35*
X129400000Y-50005000D02*
X133879874Y-50005000D01*
D37*
X137900000Y-88600000D02*
X131900000Y-88600000D01*
D36*
X115379010Y-98059010D02*
X113950000Y-96630000D01*
D35*
X134600000Y-53200000D02*
X134600000Y-62260000D01*
X133405000Y-52005000D02*
X134600000Y-53200000D01*
X116700000Y-50005000D02*
X116700000Y-50900000D01*
X117805000Y-52005000D02*
X133405000Y-52005000D01*
X134600000Y-62260000D02*
X133100000Y-63760000D01*
X116700000Y-50900000D02*
X117805000Y-52005000D01*
G04 #@! TA.AperFunction,Conductor*
G36*
X82489692Y-47311572D02*
G01*
X82585871Y-47374409D01*
X82629819Y-47423278D01*
X82787743Y-47636214D01*
X82787760Y-47636235D01*
X83061613Y-47938386D01*
X83363764Y-48212239D01*
X83363785Y-48212256D01*
X83691315Y-48455169D01*
X83691328Y-48455178D01*
X84041102Y-48664824D01*
X84041109Y-48664828D01*
X84409757Y-48839186D01*
X84409763Y-48839188D01*
X84409770Y-48839191D01*
X84540141Y-48885838D01*
X84793721Y-48976570D01*
X85189301Y-49075658D01*
X85251940Y-49084949D01*
X85361254Y-49120281D01*
X85453177Y-49189195D01*
X85517743Y-49284222D01*
X85547956Y-49395066D01*
X85543377Y-49496439D01*
X85502345Y-49708601D01*
X85499500Y-49762162D01*
X85499500Y-51752838D01*
X85502345Y-51806399D01*
X85522472Y-51910467D01*
X85547613Y-52040464D01*
X85631782Y-52263497D01*
X85631788Y-52263510D01*
X85752443Y-52469119D01*
X85906115Y-52651383D01*
X85906116Y-52651384D01*
X86088380Y-52805056D01*
X86186141Y-52862424D01*
X86293992Y-52925713D01*
X86293999Y-52925715D01*
X86294002Y-52925717D01*
X86512822Y-53008296D01*
X86517038Y-53009887D01*
X86751101Y-53055155D01*
X86804662Y-53058000D01*
X86804673Y-53058000D01*
X89195327Y-53058000D01*
X89195338Y-53058000D01*
X89248899Y-53055155D01*
X89482962Y-53009887D01*
X89706008Y-52925713D01*
X89911621Y-52805055D01*
X90093884Y-52651384D01*
X90247555Y-52469121D01*
X90310682Y-52361545D01*
X90384339Y-52273385D01*
X90482636Y-52213915D01*
X90594917Y-52189584D01*
X90709015Y-52203029D01*
X90812565Y-52252792D01*
X90858461Y-52291401D01*
X94930780Y-56363720D01*
X94997538Y-56457220D01*
X95030320Y-56567331D01*
X95025572Y-56682120D01*
X94983810Y-56789148D01*
X94909558Y-56876816D01*
X94810864Y-56935625D01*
X94698422Y-56959202D01*
X94684000Y-56959500D01*
X90849500Y-56959500D01*
X90736180Y-56940590D01*
X90635140Y-56885910D01*
X90557329Y-56801385D01*
X90511179Y-56696174D01*
X90500500Y-56610500D01*
X90500500Y-56464673D01*
X90500500Y-56464662D01*
X90497655Y-56411101D01*
X90452387Y-56177038D01*
X90421006Y-56093883D01*
X90368217Y-55954002D01*
X90368215Y-55953999D01*
X90368213Y-55953992D01*
X90259669Y-55769022D01*
X90247556Y-55748380D01*
X90093884Y-55566116D01*
X90093883Y-55566115D01*
X89911619Y-55412443D01*
X89706010Y-55291788D01*
X89705997Y-55291782D01*
X89482964Y-55207613D01*
X89386918Y-55189038D01*
X89248899Y-55162345D01*
X89195338Y-55159500D01*
X86804662Y-55159500D01*
X86751101Y-55162345D01*
X86657475Y-55180452D01*
X86517035Y-55207613D01*
X86294002Y-55291782D01*
X86293989Y-55291788D01*
X86088380Y-55412443D01*
X85906116Y-55566115D01*
X85906115Y-55566116D01*
X85752443Y-55748380D01*
X85631788Y-55953989D01*
X85631782Y-55954002D01*
X85547613Y-56177035D01*
X85532530Y-56255024D01*
X85502345Y-56411101D01*
X85499500Y-56464662D01*
X85499500Y-58455338D01*
X85502345Y-58508899D01*
X85508285Y-58539612D01*
X85547613Y-58742964D01*
X85631782Y-58965997D01*
X85631788Y-58966010D01*
X85752443Y-59171619D01*
X85906115Y-59353883D01*
X85906116Y-59353884D01*
X86088380Y-59507556D01*
X86218533Y-59583932D01*
X86293992Y-59628213D01*
X86293999Y-59628215D01*
X86294002Y-59628217D01*
X86419731Y-59675665D01*
X86517038Y-59712387D01*
X86751101Y-59757655D01*
X86804662Y-59760500D01*
X86804673Y-59760500D01*
X89195327Y-59760500D01*
X89195338Y-59760500D01*
X89248899Y-59757655D01*
X89482962Y-59712387D01*
X89706008Y-59628213D01*
X89911621Y-59507555D01*
X90093884Y-59353884D01*
X90247555Y-59171621D01*
X90368213Y-58966008D01*
X90452387Y-58742962D01*
X90497655Y-58508899D01*
X90500500Y-58455338D01*
X90500500Y-58309500D01*
X90519410Y-58196180D01*
X90574090Y-58095140D01*
X90658615Y-58017329D01*
X90763826Y-57971179D01*
X90849500Y-57960500D01*
X92577629Y-57960500D01*
X92690949Y-57979410D01*
X92791989Y-58034090D01*
X92869800Y-58118615D01*
X92915950Y-58223826D01*
X92925437Y-58338320D01*
X92897234Y-58449692D01*
X92840021Y-58539612D01*
X92710726Y-58687044D01*
X92546829Y-58932333D01*
X92546826Y-58932338D01*
X92416349Y-59196919D01*
X92416346Y-59196925D01*
X92321521Y-59476269D01*
X92321518Y-59476280D01*
X92263965Y-59765621D01*
X92244671Y-60060000D01*
X92263965Y-60354378D01*
X92321518Y-60643719D01*
X92321520Y-60643725D01*
X92386935Y-60836429D01*
X92405455Y-60949814D01*
X92386155Y-61063068D01*
X92331128Y-61163920D01*
X92303237Y-61195393D01*
X91525948Y-61972682D01*
X91487590Y-62005833D01*
X91481473Y-62010386D01*
X91481468Y-62010392D01*
X91455934Y-62040821D01*
X91445121Y-62052622D01*
X91445150Y-62052648D01*
X91438406Y-62060225D01*
X91421204Y-62081981D01*
X91414815Y-62089824D01*
X91393911Y-62114736D01*
X91368694Y-62144790D01*
X91362961Y-62153507D01*
X91362635Y-62153957D01*
X91362368Y-62154437D01*
X91356894Y-62163313D01*
X91356889Y-62163321D01*
X91356889Y-62163323D01*
X91344447Y-62190004D01*
X91326569Y-62228342D01*
X91322151Y-62237467D01*
X91289955Y-62301577D01*
X91286396Y-62311354D01*
X91286177Y-62311881D01*
X91286023Y-62312427D01*
X91282742Y-62322328D01*
X91268233Y-62392593D01*
X91266038Y-62402496D01*
X91249498Y-62472283D01*
X91248293Y-62482601D01*
X91248197Y-62483190D01*
X91248172Y-62483785D01*
X91247265Y-62494146D01*
X91249349Y-62565726D01*
X91233744Y-62679548D01*
X91182027Y-62782136D01*
X91099802Y-62862374D01*
X90995979Y-62911565D01*
X90881808Y-62924379D01*
X90769760Y-62899467D01*
X90635194Y-62845099D01*
X90635186Y-62845096D01*
X90356946Y-62775723D01*
X90356937Y-62775721D01*
X90356935Y-62775721D01*
X90305212Y-62770284D01*
X90071731Y-62745744D01*
X89785149Y-62755752D01*
X89785140Y-62755753D01*
X89502732Y-62805549D01*
X89502730Y-62805549D01*
X89502728Y-62805550D01*
X89483145Y-62811913D01*
X89378079Y-62846050D01*
X89264461Y-62863082D01*
X89151470Y-62842300D01*
X89147012Y-62840653D01*
X89032961Y-62797612D01*
X88896822Y-62771283D01*
X88798899Y-62752345D01*
X88745338Y-62749500D01*
X87254662Y-62749500D01*
X87201101Y-62752345D01*
X87137358Y-62764673D01*
X86967035Y-62797613D01*
X86744002Y-62881782D01*
X86743989Y-62881788D01*
X86538380Y-63002443D01*
X86356116Y-63156115D01*
X86356115Y-63156116D01*
X86202443Y-63338380D01*
X86081788Y-63543989D01*
X86081782Y-63544002D01*
X85997613Y-63767035D01*
X85970452Y-63907475D01*
X85952345Y-64001101D01*
X85949500Y-64054662D01*
X85949500Y-65945338D01*
X85952345Y-65998899D01*
X85979505Y-66139336D01*
X85997613Y-66232964D01*
X86081782Y-66455997D01*
X86081788Y-66456010D01*
X86202443Y-66661619D01*
X86356115Y-66843883D01*
X86356116Y-66843884D01*
X86538380Y-66997556D01*
X86612846Y-67041254D01*
X86743992Y-67118213D01*
X86743999Y-67118215D01*
X86744002Y-67118217D01*
X86967039Y-67202388D01*
X86981305Y-67206428D01*
X86980966Y-67207621D01*
X87074434Y-67242417D01*
X87163254Y-67315288D01*
X87223600Y-67413049D01*
X87248933Y-67525109D01*
X87249500Y-67544986D01*
X87249500Y-70940013D01*
X87230590Y-71053333D01*
X87175910Y-71154373D01*
X87091385Y-71232184D01*
X86986174Y-71278334D01*
X86967167Y-71282575D01*
X86967039Y-71282611D01*
X86744002Y-71366782D01*
X86743989Y-71366788D01*
X86538380Y-71487443D01*
X86356116Y-71641115D01*
X86356115Y-71641116D01*
X86202443Y-71823380D01*
X86081788Y-72028989D01*
X86081782Y-72029002D01*
X85997613Y-72252035D01*
X85973251Y-72378006D01*
X85952345Y-72486101D01*
X85949500Y-72539662D01*
X85949500Y-74430338D01*
X85952345Y-74483899D01*
X85963496Y-74541554D01*
X85997613Y-74717964D01*
X86081782Y-74940997D01*
X86081788Y-74941010D01*
X86202443Y-75146619D01*
X86356115Y-75328883D01*
X86356116Y-75328884D01*
X86538380Y-75482556D01*
X86628321Y-75535335D01*
X86743992Y-75603213D01*
X86743999Y-75603215D01*
X86744002Y-75603217D01*
X86967039Y-75687388D01*
X86981305Y-75691428D01*
X86980966Y-75692621D01*
X87074434Y-75727417D01*
X87163254Y-75800288D01*
X87223600Y-75898049D01*
X87248933Y-76010109D01*
X87249500Y-76029986D01*
X87249500Y-76043809D01*
X87230590Y-76157129D01*
X87175910Y-76258169D01*
X87091385Y-76335980D01*
X87054859Y-76356817D01*
X86872338Y-76446826D01*
X86872333Y-76446829D01*
X86627044Y-76610726D01*
X86405241Y-76805241D01*
X86210726Y-77027044D01*
X86046829Y-77272333D01*
X86046826Y-77272338D01*
X85916349Y-77536919D01*
X85916346Y-77536925D01*
X85821521Y-77816269D01*
X85821518Y-77816280D01*
X85763965Y-78105621D01*
X85744671Y-78400000D01*
X85763965Y-78694378D01*
X85821518Y-78983719D01*
X85821521Y-78983730D01*
X85916346Y-79263074D01*
X85993640Y-79419811D01*
X86046828Y-79527665D01*
X86192011Y-79744946D01*
X86210727Y-79772957D01*
X86210733Y-79772965D01*
X86251681Y-79819657D01*
X86312181Y-79917323D01*
X86337691Y-80029343D01*
X86325446Y-80143575D01*
X86276772Y-80247642D01*
X86256109Y-80274730D01*
X86202442Y-80338381D01*
X86081788Y-80543989D01*
X86081782Y-80544002D01*
X85997613Y-80767035D01*
X85988950Y-80811830D01*
X85952345Y-81001101D01*
X85949500Y-81054662D01*
X85949500Y-82945338D01*
X85952345Y-82998899D01*
X85961564Y-83046566D01*
X85997613Y-83232964D01*
X86081782Y-83455997D01*
X86081788Y-83456010D01*
X86202443Y-83661619D01*
X86356115Y-83843883D01*
X86356116Y-83843884D01*
X86538380Y-83997556D01*
X86603893Y-84036000D01*
X86743992Y-84118213D01*
X86743999Y-84118215D01*
X86744002Y-84118217D01*
X86967039Y-84202388D01*
X86981305Y-84206428D01*
X86980966Y-84207621D01*
X87074434Y-84242417D01*
X87163254Y-84315288D01*
X87223600Y-84413049D01*
X87248933Y-84525109D01*
X87249500Y-84544986D01*
X87249500Y-87455013D01*
X87230590Y-87568333D01*
X87175910Y-87669373D01*
X87091385Y-87747184D01*
X86986174Y-87793334D01*
X86967167Y-87797575D01*
X86967039Y-87797611D01*
X86744002Y-87881782D01*
X86743989Y-87881788D01*
X86538380Y-88002443D01*
X86356116Y-88156115D01*
X86356115Y-88156116D01*
X86202443Y-88338380D01*
X86081788Y-88543989D01*
X86081782Y-88544002D01*
X85997613Y-88767035D01*
X85986803Y-88822932D01*
X85952345Y-89001101D01*
X85949500Y-89054662D01*
X85949500Y-90945338D01*
X85952345Y-90998899D01*
X85979505Y-91139336D01*
X85997613Y-91232964D01*
X86081782Y-91455997D01*
X86081788Y-91456010D01*
X86202443Y-91661619D01*
X86356115Y-91843883D01*
X86356116Y-91843884D01*
X86538380Y-91997556D01*
X86623451Y-92047477D01*
X86743992Y-92118213D01*
X86743999Y-92118215D01*
X86744002Y-92118217D01*
X86967039Y-92202388D01*
X86981305Y-92206428D01*
X86980966Y-92207621D01*
X87074434Y-92242417D01*
X87163254Y-92315288D01*
X87223600Y-92413049D01*
X87248933Y-92525109D01*
X87249500Y-92544986D01*
X87249500Y-95455013D01*
X87230590Y-95568333D01*
X87175910Y-95669373D01*
X87091385Y-95747184D01*
X86986174Y-95793334D01*
X86967167Y-95797575D01*
X86967039Y-95797611D01*
X86744002Y-95881782D01*
X86743989Y-95881788D01*
X86538380Y-96002443D01*
X86356116Y-96156115D01*
X86356115Y-96156116D01*
X86202443Y-96338380D01*
X86081788Y-96543989D01*
X86081782Y-96544002D01*
X85997613Y-96767035D01*
X85970462Y-96907427D01*
X85952345Y-97001101D01*
X85949500Y-97054662D01*
X85949500Y-98945338D01*
X85952345Y-98998899D01*
X85979505Y-99139336D01*
X85997613Y-99232964D01*
X86081782Y-99455997D01*
X86081788Y-99456010D01*
X86202443Y-99661619D01*
X86356115Y-99843883D01*
X86356116Y-99843884D01*
X86538380Y-99997556D01*
X86607775Y-100038278D01*
X86743992Y-100118213D01*
X86743999Y-100118215D01*
X86744002Y-100118217D01*
X86860486Y-100162176D01*
X86967038Y-100202387D01*
X87201101Y-100247655D01*
X87254662Y-100250500D01*
X87254673Y-100250500D01*
X88745327Y-100250500D01*
X88745338Y-100250500D01*
X88798899Y-100247655D01*
X89032962Y-100202387D01*
X89139516Y-100162175D01*
X89252210Y-100139856D01*
X89352600Y-100153509D01*
X89352988Y-100151955D01*
X89523415Y-100194447D01*
X89643065Y-100224279D01*
X89928264Y-100254255D01*
X89928267Y-100254254D01*
X89928268Y-100254255D01*
X90035794Y-100250500D01*
X90214859Y-100244247D01*
X90497272Y-100194450D01*
X90770006Y-100105833D01*
X90844807Y-100069349D01*
X90954943Y-100036669D01*
X91069727Y-100041521D01*
X91128536Y-100059441D01*
X91364810Y-100154902D01*
X91364813Y-100154903D01*
X91643065Y-100224279D01*
X91928264Y-100254255D01*
X91928267Y-100254254D01*
X91928268Y-100254255D01*
X92035794Y-100250500D01*
X92214859Y-100244247D01*
X92497272Y-100194450D01*
X92770006Y-100105833D01*
X93027753Y-99980121D01*
X93265496Y-99819762D01*
X93282549Y-99804408D01*
X93441129Y-99661621D01*
X93478608Y-99627875D01*
X93662940Y-99408197D01*
X93814905Y-99165002D01*
X93931545Y-98903025D01*
X94010589Y-98627364D01*
X94034512Y-98457145D01*
X94050500Y-98343389D01*
X94050500Y-97728404D01*
X94050499Y-97728386D01*
X94038104Y-97551129D01*
X94035503Y-97513929D01*
X93975880Y-97233425D01*
X93877799Y-96963950D01*
X93743169Y-96710747D01*
X93574610Y-96478746D01*
X93568539Y-96471511D01*
X93510186Y-96372547D01*
X93487128Y-96259997D01*
X93501865Y-96146059D01*
X93552798Y-96043080D01*
X93589122Y-96000394D01*
X93594757Y-95994759D01*
X93634816Y-95949081D01*
X93789273Y-95772957D01*
X93953172Y-95527665D01*
X93953174Y-95527660D01*
X93959519Y-95518165D01*
X93961980Y-95519809D01*
X94020606Y-95448522D01*
X94118438Y-95388289D01*
X94230527Y-95363086D01*
X94344725Y-95375643D01*
X94448659Y-95424600D01*
X94531065Y-95504652D01*
X94540072Y-95518438D01*
X94540481Y-95518165D01*
X94546826Y-95527661D01*
X94546828Y-95527665D01*
X94706592Y-95766768D01*
X94710727Y-95772957D01*
X94905241Y-95994758D01*
X94946100Y-96030590D01*
X95127043Y-96189273D01*
X95372335Y-96353172D01*
X95554351Y-96442932D01*
X95636925Y-96483653D01*
X95916269Y-96578478D01*
X95916278Y-96578481D01*
X96205620Y-96636034D01*
X96205619Y-96636034D01*
X96257746Y-96639450D01*
X96469583Y-96653335D01*
X96581423Y-96679616D01*
X96678671Y-96740787D01*
X96750787Y-96830220D01*
X96782813Y-96907424D01*
X96814600Y-97020869D01*
X96814601Y-97020872D01*
X96814602Y-97020874D01*
X96814602Y-97020875D01*
X96906925Y-97233422D01*
X96932462Y-97292215D01*
X97083141Y-97539998D01*
X97086175Y-97544986D01*
X97086175Y-97544987D01*
X97272866Y-97774461D01*
X97272869Y-97774464D01*
X97272874Y-97774470D01*
X97442578Y-97932962D01*
X97489082Y-97976394D01*
X97730771Y-98146997D01*
X97730772Y-98146998D01*
X97993449Y-98283106D01*
X98092775Y-98318406D01*
X98272201Y-98382174D01*
X98561852Y-98442364D01*
X98561853Y-98442364D01*
X98561858Y-98442365D01*
X98783125Y-98457500D01*
X98783129Y-98457500D01*
X99406875Y-98457500D01*
X99628141Y-98442365D01*
X99628144Y-98442364D01*
X99628148Y-98442364D01*
X99917799Y-98382174D01*
X100129981Y-98306764D01*
X100196550Y-98283106D01*
X100196551Y-98283105D01*
X100196555Y-98283104D01*
X100459226Y-98146999D01*
X100700917Y-97976395D01*
X100893074Y-97796933D01*
X100988799Y-97733405D01*
X101099965Y-97704402D01*
X101214525Y-97713066D01*
X101320064Y-97758458D01*
X101393677Y-97821883D01*
X101444807Y-97880185D01*
X101444811Y-97880189D01*
X101671539Y-98079025D01*
X101922282Y-98246566D01*
X101922286Y-98246568D01*
X101922289Y-98246570D01*
X102155591Y-98361621D01*
X102192748Y-98379945D01*
X102478309Y-98476880D01*
X102774080Y-98535713D01*
X103075000Y-98555436D01*
X103375920Y-98535713D01*
X103671691Y-98476880D01*
X103890857Y-98402482D01*
X104004235Y-98383964D01*
X104117490Y-98403264D01*
X104218341Y-98458291D01*
X104249815Y-98486182D01*
X108117675Y-102354042D01*
X108150833Y-102392410D01*
X108155386Y-102398526D01*
X108155391Y-102398531D01*
X108185808Y-102424054D01*
X108197604Y-102434863D01*
X108197631Y-102434834D01*
X108205223Y-102441590D01*
X108226959Y-102458776D01*
X108234839Y-102465195D01*
X108289784Y-102511301D01*
X108298481Y-102517021D01*
X108298956Y-102517363D01*
X108299474Y-102517653D01*
X108308323Y-102523111D01*
X108373342Y-102553430D01*
X108382445Y-102557836D01*
X108446567Y-102590040D01*
X108446577Y-102590042D01*
X108456317Y-102593588D01*
X108456881Y-102593821D01*
X108457464Y-102593987D01*
X108467319Y-102597252D01*
X108467327Y-102597256D01*
X108537539Y-102611753D01*
X108547455Y-102613951D01*
X108592224Y-102624561D01*
X108617279Y-102630500D01*
X108617288Y-102630500D01*
X108627604Y-102631706D01*
X108628192Y-102631800D01*
X108628788Y-102631827D01*
X108639134Y-102632731D01*
X108639144Y-102632733D01*
X108710811Y-102630648D01*
X108720960Y-102630500D01*
X123652472Y-102630500D01*
X123765792Y-102649410D01*
X123866832Y-102704090D01*
X123944643Y-102788615D01*
X123972579Y-102840460D01*
X123986133Y-102871666D01*
X123986138Y-102871675D01*
X123986141Y-102871682D01*
X124139001Y-103123049D01*
X124324665Y-103351260D01*
X124539674Y-103552065D01*
X124780024Y-103721722D01*
X124780026Y-103721723D01*
X125041239Y-103857074D01*
X125318445Y-103955592D01*
X125318444Y-103955592D01*
X125523290Y-103998159D01*
X125606489Y-104015448D01*
X125606490Y-104015448D01*
X125606495Y-104015449D01*
X125826534Y-104030500D01*
X125826538Y-104030500D01*
X126973466Y-104030500D01*
X127193504Y-104015449D01*
X127193507Y-104015448D01*
X127193511Y-104015448D01*
X127379131Y-103976875D01*
X127481555Y-103955592D01*
X127758760Y-103857074D01*
X127881025Y-103793721D01*
X128019976Y-103721722D01*
X128260326Y-103552065D01*
X128475335Y-103351260D01*
X128660999Y-103123049D01*
X128813859Y-102871682D01*
X128931067Y-102601841D01*
X129010440Y-102318555D01*
X129050500Y-102027098D01*
X129050500Y-101732902D01*
X129010440Y-101441445D01*
X129010440Y-101441443D01*
X128931068Y-101158163D01*
X128931067Y-101158159D01*
X128813859Y-100888318D01*
X128660999Y-100636951D01*
X128475335Y-100408740D01*
X128260326Y-100207935D01*
X128019976Y-100038278D01*
X128019975Y-100038277D01*
X128019973Y-100038276D01*
X127758760Y-99902925D01*
X127481554Y-99804407D01*
X127481555Y-99804407D01*
X127193514Y-99744552D01*
X127193504Y-99744550D01*
X126973466Y-99729500D01*
X126973462Y-99729500D01*
X125826538Y-99729500D01*
X125826534Y-99729500D01*
X125606495Y-99744550D01*
X125606485Y-99744552D01*
X125318444Y-99804407D01*
X125041239Y-99902925D01*
X124780026Y-100038276D01*
X124666776Y-100118217D01*
X124539674Y-100207935D01*
X124324665Y-100408740D01*
X124324664Y-100408741D01*
X124324663Y-100408741D01*
X124139002Y-100636949D01*
X123986141Y-100888318D01*
X123986133Y-100888333D01*
X123972579Y-100919540D01*
X123910089Y-101015946D01*
X123819681Y-101086836D01*
X123711154Y-101124531D01*
X123652472Y-101129500D01*
X109160428Y-101129500D01*
X109047108Y-101110590D01*
X108946068Y-101055910D01*
X108913648Y-101027280D01*
X105311183Y-97424815D01*
X105244425Y-97331315D01*
X105211643Y-97221204D01*
X105216391Y-97106415D01*
X105227485Y-97065852D01*
X105277729Y-96917837D01*
X105301880Y-96846691D01*
X105360713Y-96550920D01*
X105380436Y-96250000D01*
X105360713Y-95949080D01*
X105301880Y-95653309D01*
X105204945Y-95367748D01*
X105141148Y-95238380D01*
X105071570Y-95097289D01*
X105071567Y-95097285D01*
X105071566Y-95097282D01*
X104904025Y-94846539D01*
X104847239Y-94781787D01*
X104705189Y-94619810D01*
X104568479Y-94499919D01*
X104478461Y-94420975D01*
X104478459Y-94420973D01*
X104478458Y-94420972D01*
X104389608Y-94361605D01*
X104305892Y-94282925D01*
X104252259Y-94181325D01*
X104234522Y-94067816D01*
X104254602Y-93954697D01*
X104310323Y-93854228D01*
X104336714Y-93824652D01*
X108121233Y-90040133D01*
X108214730Y-89973378D01*
X108324841Y-89940596D01*
X108439630Y-89945344D01*
X108546658Y-89987106D01*
X108634326Y-90061358D01*
X108681018Y-90132557D01*
X108740219Y-90252606D01*
X108740220Y-90252608D01*
X108740222Y-90252611D01*
X108810929Y-90358431D01*
X108900480Y-90492454D01*
X109090672Y-90709327D01*
X109236826Y-90837500D01*
X109307546Y-90899520D01*
X109547389Y-91059778D01*
X109631161Y-91101089D01*
X109806094Y-91187358D01*
X109940445Y-91232964D01*
X110079247Y-91280081D01*
X110362161Y-91336356D01*
X110650000Y-91355222D01*
X110937839Y-91336356D01*
X111220753Y-91280081D01*
X111493902Y-91187359D01*
X111493901Y-91187359D01*
X111493905Y-91187358D01*
X111580138Y-91144832D01*
X111752611Y-91059778D01*
X111992454Y-90899520D01*
X112209327Y-90709327D01*
X112399520Y-90492454D01*
X112559778Y-90252611D01*
X112644832Y-90080138D01*
X112687358Y-89993905D01*
X112710753Y-89924985D01*
X112780081Y-89720753D01*
X112836356Y-89437839D01*
X112855222Y-89150000D01*
X112840595Y-88926833D01*
X112852053Y-88812519D01*
X112900008Y-88708119D01*
X112979263Y-88624947D01*
X113081230Y-88572015D01*
X113194859Y-88555060D01*
X113301028Y-88573529D01*
X113379247Y-88600081D01*
X113662161Y-88656356D01*
X113950000Y-88675222D01*
X114237839Y-88656356D01*
X114520753Y-88600081D01*
X114793902Y-88507359D01*
X114793901Y-88507359D01*
X114793905Y-88507358D01*
X114880138Y-88464832D01*
X115052611Y-88379778D01*
X115292454Y-88219520D01*
X115509327Y-88029327D01*
X115699520Y-87812454D01*
X115859778Y-87572611D01*
X115987359Y-87313902D01*
X116080081Y-87040753D01*
X116136356Y-86757839D01*
X116155222Y-86470000D01*
X116138289Y-86211654D01*
X116149747Y-86097340D01*
X116197702Y-85992940D01*
X116276957Y-85909768D01*
X116378924Y-85856836D01*
X116492553Y-85839881D01*
X116598721Y-85858350D01*
X116653309Y-85876880D01*
X116949080Y-85935713D01*
X117250000Y-85955436D01*
X117550920Y-85935713D01*
X117846691Y-85876880D01*
X118132252Y-85779945D01*
X118402718Y-85646566D01*
X118653461Y-85479025D01*
X118880189Y-85280189D01*
X119079025Y-85053461D01*
X119079031Y-85053450D01*
X119079930Y-85052281D01*
X119080644Y-85051613D01*
X119086558Y-85044871D01*
X119087233Y-85045463D01*
X119163912Y-84973884D01*
X119268798Y-84927003D01*
X119383224Y-84916720D01*
X119494789Y-84944148D01*
X119591404Y-85006314D01*
X119662598Y-85096483D01*
X119700656Y-85204884D01*
X119701455Y-85319768D01*
X119676937Y-85403748D01*
X119674605Y-85409116D01*
X119674602Y-85409125D01*
X119674600Y-85409128D01*
X119674600Y-85409131D01*
X119655017Y-85479024D01*
X119594782Y-85693999D01*
X119554501Y-85987067D01*
X119554500Y-85987085D01*
X119554500Y-86282914D01*
X119554501Y-86282932D01*
X119594782Y-86576000D01*
X119599932Y-86594380D01*
X119674600Y-86860869D01*
X119674601Y-86860872D01*
X119674602Y-86860874D01*
X119674602Y-86860875D01*
X119752738Y-87040761D01*
X119792462Y-87132215D01*
X119792464Y-87132219D01*
X119792469Y-87132228D01*
X119848074Y-87223667D01*
X119890796Y-87330315D01*
X119896575Y-87445057D01*
X119864783Y-87555458D01*
X119848074Y-87586333D01*
X119792469Y-87677771D01*
X119792459Y-87677791D01*
X119674602Y-87949124D01*
X119674602Y-87949125D01*
X119674600Y-87949128D01*
X119674600Y-87949131D01*
X119659662Y-88002445D01*
X119594782Y-88233999D01*
X119554501Y-88527067D01*
X119554500Y-88527085D01*
X119554500Y-88822914D01*
X119554501Y-88822932D01*
X119594782Y-89116000D01*
X119627683Y-89233422D01*
X119674600Y-89400869D01*
X119674601Y-89400872D01*
X119674602Y-89400874D01*
X119674602Y-89400875D01*
X119731663Y-89532242D01*
X119792462Y-89672215D01*
X119939125Y-89913394D01*
X119946175Y-89924986D01*
X119946175Y-89924987D01*
X120132866Y-90154461D01*
X120132869Y-90154464D01*
X120132874Y-90154470D01*
X120349083Y-90356395D01*
X120455692Y-90431648D01*
X120590771Y-90526997D01*
X120590772Y-90526998D01*
X120590774Y-90526999D01*
X120836168Y-90654152D01*
X120853449Y-90663106D01*
X120983504Y-90709327D01*
X121132201Y-90762174D01*
X121421852Y-90822364D01*
X121421853Y-90822364D01*
X121421858Y-90822365D01*
X121643125Y-90837500D01*
X121643129Y-90837500D01*
X122266875Y-90837500D01*
X122488141Y-90822365D01*
X122488144Y-90822364D01*
X122488148Y-90822364D01*
X122777799Y-90762174D01*
X123039009Y-90669340D01*
X123056550Y-90663106D01*
X123056551Y-90663105D01*
X123056555Y-90663104D01*
X123319226Y-90526999D01*
X123560917Y-90356395D01*
X123777126Y-90154470D01*
X123963826Y-89924985D01*
X124117538Y-89672215D01*
X124142450Y-89614861D01*
X124204934Y-89518464D01*
X124295341Y-89447572D01*
X124359014Y-89423168D01*
X124358433Y-89421416D01*
X124359790Y-89420966D01*
X124378934Y-89415534D01*
X124382199Y-89414283D01*
X124383729Y-89413921D01*
X124387794Y-89413020D01*
X124389156Y-89412634D01*
X124399246Y-89410242D01*
X124399255Y-89410241D01*
X124466664Y-89385706D01*
X124476242Y-89382377D01*
X124544334Y-89359814D01*
X124544342Y-89359808D01*
X124553745Y-89355425D01*
X124554306Y-89355192D01*
X124554834Y-89354898D01*
X124564106Y-89350240D01*
X124564117Y-89350237D01*
X124624113Y-89310776D01*
X124632541Y-89305407D01*
X124693656Y-89267712D01*
X124693662Y-89267705D01*
X124701789Y-89261280D01*
X124702292Y-89260916D01*
X124702771Y-89260478D01*
X124710683Y-89253838D01*
X124710696Y-89253830D01*
X124759969Y-89201602D01*
X124766942Y-89194424D01*
X125964818Y-87996547D01*
X126058315Y-87929792D01*
X126168426Y-87897010D01*
X126283215Y-87901758D01*
X126390243Y-87943520D01*
X126441706Y-87980937D01*
X126496539Y-88029025D01*
X126747282Y-88196566D01*
X126747286Y-88196568D01*
X126747289Y-88196570D01*
X126901182Y-88272461D01*
X127017748Y-88329945D01*
X127303309Y-88426880D01*
X127599080Y-88485713D01*
X127900000Y-88505436D01*
X128200920Y-88485713D01*
X128496691Y-88426880D01*
X128715857Y-88352482D01*
X128829235Y-88333964D01*
X128942490Y-88353264D01*
X129043341Y-88408291D01*
X129074815Y-88436182D01*
X129705262Y-89066629D01*
X129772020Y-89160129D01*
X129785477Y-89191445D01*
X129813924Y-89267713D01*
X129875633Y-89433161D01*
X129996552Y-89654606D01*
X130012777Y-89684320D01*
X130184260Y-89913394D01*
X130386605Y-90115739D01*
X130615679Y-90287222D01*
X130615681Y-90287223D01*
X130615685Y-90287226D01*
X130866839Y-90424367D01*
X131134954Y-90524369D01*
X131134957Y-90524369D01*
X131134958Y-90524370D01*
X131414571Y-90585196D01*
X131414570Y-90585196D01*
X131475709Y-90589568D01*
X131628552Y-90600500D01*
X131628557Y-90600500D01*
X132171443Y-90600500D01*
X132171448Y-90600500D01*
X132349764Y-90587746D01*
X132385429Y-90585196D01*
X132652956Y-90526999D01*
X132665041Y-90524370D01*
X132665042Y-90524370D01*
X132665042Y-90524369D01*
X132665046Y-90524369D01*
X132933161Y-90424367D01*
X133184315Y-90287226D01*
X133413395Y-90115739D01*
X133615739Y-89913395D01*
X133787226Y-89684315D01*
X133870265Y-89532240D01*
X133941170Y-89441846D01*
X134037585Y-89379370D01*
X134149061Y-89351586D01*
X134176574Y-89350500D01*
X136845572Y-89350500D01*
X136958892Y-89369410D01*
X137059932Y-89424090D01*
X137137743Y-89508615D01*
X137183893Y-89613826D01*
X137193380Y-89728320D01*
X137165177Y-89839692D01*
X137102340Y-89935871D01*
X137092352Y-89946280D01*
X131091352Y-95947280D01*
X130997852Y-96014038D01*
X130887741Y-96046820D01*
X130844572Y-96049500D01*
X129364326Y-96049500D01*
X129251006Y-96030590D01*
X129149966Y-95975910D01*
X129072155Y-95891385D01*
X129026005Y-95786174D01*
X129021675Y-95766768D01*
X129017220Y-95743736D01*
X129002387Y-95667038D01*
X129002386Y-95667035D01*
X128918217Y-95444002D01*
X128918215Y-95443999D01*
X128918213Y-95443992D01*
X128832416Y-95297785D01*
X128797556Y-95238380D01*
X128643884Y-95056116D01*
X128643883Y-95056115D01*
X128461619Y-94902443D01*
X128256010Y-94781788D01*
X128255997Y-94781782D01*
X128032964Y-94697613D01*
X127939336Y-94679505D01*
X127798899Y-94652345D01*
X127745338Y-94649500D01*
X125054662Y-94649500D01*
X125001101Y-94652345D01*
X124923080Y-94667434D01*
X124767034Y-94697613D01*
X124750014Y-94704036D01*
X124637315Y-94726352D01*
X124523476Y-94710865D01*
X124420835Y-94659253D01*
X124340513Y-94577111D01*
X124291214Y-94473339D01*
X124278282Y-94359182D01*
X124290741Y-94283355D01*
X124315217Y-94196002D01*
X124355500Y-93902919D01*
X124355500Y-93607081D01*
X124315217Y-93313998D01*
X124235400Y-93029131D01*
X124234493Y-93027044D01*
X124223537Y-93001820D01*
X124117538Y-92757785D01*
X123963826Y-92505015D01*
X123963824Y-92505012D01*
X123777133Y-92275538D01*
X123777130Y-92275535D01*
X123777126Y-92275530D01*
X123560917Y-92073605D01*
X123445519Y-91992148D01*
X123319228Y-91903002D01*
X123319227Y-91903001D01*
X123056550Y-91766893D01*
X122777797Y-91667825D01*
X122488151Y-91607636D01*
X122488141Y-91607634D01*
X122266875Y-91592500D01*
X122266871Y-91592500D01*
X121643129Y-91592500D01*
X121643125Y-91592500D01*
X121421858Y-91607634D01*
X121421848Y-91607636D01*
X121132202Y-91667825D01*
X120853449Y-91766893D01*
X120590772Y-91903001D01*
X120590771Y-91903002D01*
X120349082Y-92073605D01*
X120132872Y-92275532D01*
X120132866Y-92275538D01*
X119946175Y-92505012D01*
X119946175Y-92505013D01*
X119792466Y-92757778D01*
X119792459Y-92757791D01*
X119674602Y-93029124D01*
X119674602Y-93029125D01*
X119594782Y-93313999D01*
X119554501Y-93607067D01*
X119554500Y-93607085D01*
X119554500Y-93902914D01*
X119554501Y-93902932D01*
X119594782Y-94196000D01*
X119594783Y-94196002D01*
X119674600Y-94480869D01*
X119674601Y-94480872D01*
X119674602Y-94480874D01*
X119674602Y-94480875D01*
X119781228Y-94726352D01*
X119792462Y-94752215D01*
X119792464Y-94752219D01*
X119792469Y-94752228D01*
X119848074Y-94843667D01*
X119890796Y-94950315D01*
X119896575Y-95065057D01*
X119864783Y-95175458D01*
X119848074Y-95206333D01*
X119792469Y-95297771D01*
X119792459Y-95297791D01*
X119674602Y-95569124D01*
X119674602Y-95569125D01*
X119594782Y-95853999D01*
X119554501Y-96147067D01*
X119554500Y-96147085D01*
X119554500Y-96442914D01*
X119554501Y-96442932D01*
X119594782Y-96736000D01*
X119603478Y-96767035D01*
X119674600Y-97020869D01*
X119674601Y-97020872D01*
X119674602Y-97020874D01*
X119674602Y-97020876D01*
X119696143Y-97070466D01*
X119723946Y-97181938D01*
X119714048Y-97296398D01*
X119667521Y-97401442D01*
X119589407Y-97485688D01*
X119488172Y-97540005D01*
X119376037Y-97558510D01*
X116434176Y-97558510D01*
X116320856Y-97539600D01*
X116219816Y-97484920D01*
X116142005Y-97400395D01*
X116095855Y-97295184D01*
X116086368Y-97180690D01*
X116091882Y-97141423D01*
X116136356Y-96917839D01*
X116155222Y-96630000D01*
X116136356Y-96342161D01*
X116080081Y-96059247D01*
X116042073Y-95947280D01*
X115987358Y-95786094D01*
X115859780Y-95527394D01*
X115859778Y-95527389D01*
X115699520Y-95287546D01*
X115676121Y-95260865D01*
X115509327Y-95070672D01*
X115292454Y-94880480D01*
X115237359Y-94843667D01*
X115052611Y-94720222D01*
X115019789Y-94704036D01*
X114793905Y-94592641D01*
X114520761Y-94499921D01*
X114520754Y-94499919D01*
X114520753Y-94499919D01*
X114427164Y-94481303D01*
X114237837Y-94443643D01*
X113950000Y-94424778D01*
X113662162Y-94443643D01*
X113379247Y-94499919D01*
X113379238Y-94499921D01*
X113106094Y-94592641D01*
X112847394Y-94720219D01*
X112847389Y-94720222D01*
X112607545Y-94880480D01*
X112390672Y-95070672D01*
X112200480Y-95287545D01*
X112040222Y-95527389D01*
X112040219Y-95527394D01*
X111912641Y-95786094D01*
X111819921Y-96059238D01*
X111819919Y-96059247D01*
X111763643Y-96342162D01*
X111744778Y-96630000D01*
X111763643Y-96917837D01*
X111794003Y-97070466D01*
X111816176Y-97181938D01*
X111819919Y-97200752D01*
X111819921Y-97200761D01*
X111912641Y-97473905D01*
X112023597Y-97698899D01*
X112040222Y-97732611D01*
X112174092Y-97932962D01*
X112200480Y-97972454D01*
X112390672Y-98189327D01*
X112497607Y-98283106D01*
X112607546Y-98379520D01*
X112847389Y-98539778D01*
X112895225Y-98563368D01*
X113106094Y-98667358D01*
X113379238Y-98760078D01*
X113379247Y-98760081D01*
X113662161Y-98816356D01*
X113950000Y-98835222D01*
X114237839Y-98816356D01*
X114520753Y-98760081D01*
X114793902Y-98667359D01*
X114793901Y-98667359D01*
X114793905Y-98667358D01*
X114993590Y-98568884D01*
X115103587Y-98535723D01*
X115218391Y-98540075D01*
X115246285Y-98547032D01*
X115253878Y-98549261D01*
X115271523Y-98553100D01*
X115271524Y-98553100D01*
X115271527Y-98553101D01*
X115313042Y-98556070D01*
X115337800Y-98558731D01*
X115343211Y-98559510D01*
X115348661Y-98559510D01*
X115373558Y-98560398D01*
X115415083Y-98563369D01*
X115415090Y-98563367D01*
X115439979Y-98561588D01*
X115440063Y-98562765D01*
X115470345Y-98559510D01*
X123149655Y-98559510D01*
X123179936Y-98562765D01*
X123180021Y-98561588D01*
X123204909Y-98563367D01*
X123204917Y-98563369D01*
X123246441Y-98560398D01*
X123271339Y-98559510D01*
X123276785Y-98559510D01*
X123276789Y-98559510D01*
X123282186Y-98558733D01*
X123306953Y-98556070D01*
X123348473Y-98553101D01*
X123348478Y-98553099D01*
X123366127Y-98549260D01*
X123383443Y-98544175D01*
X123383447Y-98544175D01*
X123421309Y-98526883D01*
X123444305Y-98517357D01*
X123483321Y-98502806D01*
X123483325Y-98502802D01*
X123483327Y-98502802D01*
X123499154Y-98494160D01*
X123514355Y-98484390D01*
X123514363Y-98484387D01*
X123545804Y-98457142D01*
X123565210Y-98441503D01*
X123569583Y-98438231D01*
X123570784Y-98437029D01*
X123571835Y-98436278D01*
X123579003Y-98430068D01*
X123579587Y-98430742D01*
X123664272Y-98370267D01*
X123774380Y-98337474D01*
X123889169Y-98342211D01*
X123996201Y-98383962D01*
X124083877Y-98458205D01*
X124084402Y-98458827D01*
X124156115Y-98543883D01*
X124156116Y-98543884D01*
X124338380Y-98697556D01*
X124444924Y-98760078D01*
X124543992Y-98818213D01*
X124543999Y-98818215D01*
X124544002Y-98818217D01*
X124767035Y-98902386D01*
X124767038Y-98902387D01*
X125001101Y-98947655D01*
X125054662Y-98950500D01*
X125054673Y-98950500D01*
X127745327Y-98950500D01*
X127745338Y-98950500D01*
X127798899Y-98947655D01*
X128032962Y-98902387D01*
X128256008Y-98818213D01*
X128461621Y-98697555D01*
X128643884Y-98543884D01*
X128797555Y-98361621D01*
X128918213Y-98156008D01*
X129002387Y-97932962D01*
X129021675Y-97833232D01*
X129061758Y-97725564D01*
X129134629Y-97636745D01*
X129232391Y-97576399D01*
X129344451Y-97551066D01*
X129364326Y-97550500D01*
X131219904Y-97550500D01*
X131270485Y-97554185D01*
X131271689Y-97554361D01*
X131278023Y-97555289D01*
X131317586Y-97551827D01*
X131333576Y-97551129D01*
X131333574Y-97551090D01*
X131343697Y-97550500D01*
X131343709Y-97550500D01*
X131371271Y-97547277D01*
X131381256Y-97546257D01*
X131452797Y-97539999D01*
X131452805Y-97539996D01*
X131462970Y-97537898D01*
X131463562Y-97537802D01*
X131464156Y-97537634D01*
X131474246Y-97535242D01*
X131474255Y-97535241D01*
X131541664Y-97510706D01*
X131551242Y-97507377D01*
X131619334Y-97484814D01*
X131619342Y-97484808D01*
X131628745Y-97480425D01*
X131629306Y-97480192D01*
X131629834Y-97479898D01*
X131639106Y-97475240D01*
X131639117Y-97475237D01*
X131699113Y-97435776D01*
X131707541Y-97430407D01*
X131768656Y-97392712D01*
X131768662Y-97392705D01*
X131776789Y-97386280D01*
X131777293Y-97385915D01*
X131777769Y-97385480D01*
X131785682Y-97378838D01*
X131785696Y-97378830D01*
X131834934Y-97326638D01*
X131841940Y-97319426D01*
X138474052Y-90687314D01*
X138512415Y-90654161D01*
X138518530Y-90649610D01*
X138544045Y-90619202D01*
X138554871Y-90607388D01*
X138554841Y-90607361D01*
X138561583Y-90599784D01*
X138561591Y-90599777D01*
X138578818Y-90577987D01*
X138585145Y-90570220D01*
X138631302Y-90515214D01*
X138631305Y-90515209D01*
X138637004Y-90506545D01*
X138637359Y-90506052D01*
X138637665Y-90505505D01*
X138643104Y-90496685D01*
X138643111Y-90496677D01*
X138673439Y-90431636D01*
X138677830Y-90422566D01*
X138710040Y-90358433D01*
X138710041Y-90358427D01*
X138713579Y-90348708D01*
X138713823Y-90348118D01*
X138713996Y-90347509D01*
X138717253Y-90337680D01*
X138717257Y-90337673D01*
X138731780Y-90267335D01*
X138733960Y-90257505D01*
X138735121Y-90252606D01*
X138750500Y-90187721D01*
X138750500Y-90187709D01*
X138751705Y-90177405D01*
X138751802Y-90176798D01*
X138751829Y-90176203D01*
X138752734Y-90165855D01*
X138750648Y-90094169D01*
X138750500Y-90084015D01*
X138750500Y-56583034D01*
X138769410Y-56469714D01*
X138824090Y-56368674D01*
X138908615Y-56290863D01*
X138922869Y-56282032D01*
X138981618Y-56247557D01*
X138981618Y-56247556D01*
X138981621Y-56247555D01*
X139163884Y-56093884D01*
X139317555Y-55911621D01*
X139349499Y-55857186D01*
X139423160Y-55769022D01*
X139521458Y-55709552D01*
X139633739Y-55685222D01*
X139747836Y-55698667D01*
X139851386Y-55748432D01*
X139933166Y-55829122D01*
X139984316Y-55931995D01*
X139999500Y-56033819D01*
X139999500Y-102368822D01*
X139980590Y-102482142D01*
X139925910Y-102583182D01*
X139841385Y-102660993D01*
X139736174Y-102707143D01*
X139621680Y-102716630D01*
X139510308Y-102688427D01*
X139414129Y-102625590D01*
X139370181Y-102576722D01*
X139287466Y-102465195D01*
X139212249Y-102363776D01*
X139212243Y-102363769D01*
X139212239Y-102363764D01*
X138938386Y-102061613D01*
X138636235Y-101787760D01*
X138636214Y-101787743D01*
X138308684Y-101544830D01*
X138308671Y-101544821D01*
X137958897Y-101335175D01*
X137958885Y-101335169D01*
X137590246Y-101160815D01*
X137590229Y-101160808D01*
X137206282Y-101023431D01*
X137206281Y-101023430D01*
X137206279Y-101023430D01*
X137108350Y-100998900D01*
X136810710Y-100924344D01*
X136810702Y-100924342D01*
X136810699Y-100924342D01*
X136628034Y-100897246D01*
X136407314Y-100864505D01*
X136000000Y-100844495D01*
X135592685Y-100864505D01*
X135298390Y-100908160D01*
X135189301Y-100924342D01*
X135189298Y-100924342D01*
X135189289Y-100924344D01*
X134793717Y-101023431D01*
X134409770Y-101160808D01*
X134409753Y-101160815D01*
X134041114Y-101335169D01*
X134041102Y-101335175D01*
X133691328Y-101544821D01*
X133691315Y-101544830D01*
X133363785Y-101787743D01*
X133363764Y-101787760D01*
X133061613Y-102061613D01*
X132787760Y-102363764D01*
X132787743Y-102363785D01*
X132544830Y-102691315D01*
X132544821Y-102691328D01*
X132335175Y-103041102D01*
X132335169Y-103041114D01*
X132160815Y-103409753D01*
X132160808Y-103409770D01*
X132023431Y-103793717D01*
X131924344Y-104189289D01*
X131864505Y-104592685D01*
X131844495Y-105000000D01*
X131864505Y-105407314D01*
X131924344Y-105810710D01*
X132023431Y-106206282D01*
X132160808Y-106590229D01*
X132160815Y-106590246D01*
X132335169Y-106958885D01*
X132335175Y-106958897D01*
X132544821Y-107308671D01*
X132544830Y-107308684D01*
X132787743Y-107636214D01*
X132787760Y-107636235D01*
X133061613Y-107938386D01*
X133363764Y-108212239D01*
X133363785Y-108212256D01*
X133576722Y-108370181D01*
X133656477Y-108452874D01*
X133705060Y-108556983D01*
X133717207Y-108671226D01*
X133691601Y-108783223D01*
X133631017Y-108880838D01*
X133542020Y-108953492D01*
X133434254Y-108993312D01*
X133368823Y-108999500D01*
X88631177Y-108999500D01*
X88517857Y-108980590D01*
X88416817Y-108925910D01*
X88339006Y-108841385D01*
X88292856Y-108736174D01*
X88283369Y-108621680D01*
X88311572Y-108510308D01*
X88374409Y-108414129D01*
X88423278Y-108370181D01*
X88529471Y-108291421D01*
X88636224Y-108212249D01*
X88938386Y-107938386D01*
X89212249Y-107636224D01*
X89455176Y-107308675D01*
X89664828Y-106958891D01*
X89839186Y-106590243D01*
X89976570Y-106206279D01*
X90075658Y-105810699D01*
X90135495Y-105407311D01*
X90142094Y-105272976D01*
X94829050Y-105272976D01*
X94829050Y-107560405D01*
X125905066Y-107560405D01*
X125905066Y-105272976D01*
X94829050Y-105272976D01*
X90142094Y-105272976D01*
X90155505Y-105000000D01*
X90135495Y-104592689D01*
X90075658Y-104189301D01*
X89976570Y-103793721D01*
X89839186Y-103409757D01*
X89664828Y-103041109D01*
X89563277Y-102871681D01*
X89455178Y-102691328D01*
X89455169Y-102691315D01*
X89212256Y-102363785D01*
X89212239Y-102363764D01*
X88938386Y-102061613D01*
X88636235Y-101787760D01*
X88636214Y-101787743D01*
X88308684Y-101544830D01*
X88308671Y-101544821D01*
X87958897Y-101335175D01*
X87958885Y-101335169D01*
X87590246Y-101160815D01*
X87590229Y-101160808D01*
X87206282Y-101023431D01*
X87206281Y-101023430D01*
X87206279Y-101023430D01*
X87108350Y-100998900D01*
X86810710Y-100924344D01*
X86810702Y-100924342D01*
X86810699Y-100924342D01*
X86628034Y-100897246D01*
X86407314Y-100864505D01*
X86000000Y-100844495D01*
X85592685Y-100864505D01*
X85298390Y-100908160D01*
X85189301Y-100924342D01*
X85189298Y-100924342D01*
X85189289Y-100924344D01*
X84793717Y-101023431D01*
X84409770Y-101160808D01*
X84409753Y-101160815D01*
X84041114Y-101335169D01*
X84041102Y-101335175D01*
X83691328Y-101544821D01*
X83691315Y-101544830D01*
X83363785Y-101787743D01*
X83363764Y-101787760D01*
X83061613Y-102061613D01*
X82787760Y-102363764D01*
X82787751Y-102363776D01*
X82629819Y-102576722D01*
X82547125Y-102656477D01*
X82443016Y-102705060D01*
X82328773Y-102717206D01*
X82216776Y-102691600D01*
X82119162Y-102631015D01*
X82046508Y-102542018D01*
X82006688Y-102434253D01*
X82000500Y-102368822D01*
X82000500Y-47631177D01*
X82019410Y-47517857D01*
X82074090Y-47416817D01*
X82158615Y-47339006D01*
X82263826Y-47292856D01*
X82378320Y-47283369D01*
X82489692Y-47311572D01*
G37*
G04 #@! TD.AperFunction*
G04 #@! TA.AperFunction,Conductor*
G36*
X97263888Y-59780502D02*
G01*
X97349874Y-59843474D01*
X99992280Y-62485879D01*
X100059038Y-62579379D01*
X100091820Y-62689490D01*
X100094500Y-62732659D01*
X100094500Y-70955566D01*
X100075590Y-71068886D01*
X100020910Y-71169926D01*
X99936385Y-71247737D01*
X99831174Y-71293887D01*
X99716680Y-71303374D01*
X99674497Y-71297267D01*
X99628147Y-71287635D01*
X99628141Y-71287634D01*
X99406875Y-71272500D01*
X99406871Y-71272500D01*
X98783129Y-71272500D01*
X98783125Y-71272500D01*
X98561858Y-71287634D01*
X98561848Y-71287636D01*
X98272202Y-71347825D01*
X97993449Y-71446893D01*
X97730772Y-71583001D01*
X97730771Y-71583002D01*
X97489082Y-71753605D01*
X97272872Y-71955532D01*
X97272866Y-71955538D01*
X97086175Y-72185012D01*
X97086175Y-72185013D01*
X96932466Y-72437778D01*
X96932459Y-72437791D01*
X96814602Y-72709124D01*
X96814602Y-72709125D01*
X96734782Y-72993999D01*
X96694501Y-73287067D01*
X96694500Y-73287085D01*
X96694500Y-73582914D01*
X96694501Y-73582932D01*
X96734782Y-73876000D01*
X96734783Y-73876002D01*
X96814600Y-74160869D01*
X96814601Y-74160872D01*
X96814602Y-74160874D01*
X96814602Y-74160875D01*
X96884166Y-74321027D01*
X96932462Y-74432215D01*
X96932464Y-74432219D01*
X96932469Y-74432228D01*
X96988074Y-74523667D01*
X97030796Y-74630315D01*
X97036575Y-74745057D01*
X97004783Y-74855458D01*
X96988074Y-74886333D01*
X96932469Y-74977771D01*
X96932459Y-74977791D01*
X96814602Y-75249124D01*
X96814602Y-75249125D01*
X96734782Y-75533999D01*
X96694501Y-75827067D01*
X96694500Y-75827085D01*
X96694500Y-75959869D01*
X96675590Y-76073189D01*
X96620910Y-76174229D01*
X96536385Y-76252040D01*
X96431174Y-76298190D01*
X96413587Y-76302163D01*
X96316278Y-76321519D01*
X96316269Y-76321521D01*
X96036925Y-76416346D01*
X96036919Y-76416349D01*
X95772338Y-76546826D01*
X95772333Y-76546829D01*
X95527044Y-76710726D01*
X95305241Y-76905241D01*
X95110726Y-77127044D01*
X94946829Y-77372333D01*
X94946826Y-77372338D01*
X94816349Y-77636919D01*
X94816346Y-77636925D01*
X94721521Y-77916269D01*
X94721518Y-77916280D01*
X94663965Y-78205621D01*
X94644671Y-78500000D01*
X94663965Y-78794378D01*
X94721518Y-79083719D01*
X94721521Y-79083730D01*
X94816346Y-79363074D01*
X94946825Y-79627659D01*
X94946828Y-79627665D01*
X95075113Y-79819657D01*
X95110727Y-79872957D01*
X95305241Y-80094758D01*
X95375207Y-80156116D01*
X95527043Y-80289273D01*
X95772335Y-80453172D01*
X96029357Y-80579921D01*
X96036925Y-80583653D01*
X96185073Y-80633942D01*
X96316278Y-80678481D01*
X96413590Y-80697837D01*
X96521038Y-80738489D01*
X96609470Y-80811830D01*
X96669296Y-80909910D01*
X96694034Y-81022102D01*
X96694500Y-81040130D01*
X96694500Y-81099571D01*
X96675590Y-81212891D01*
X96620910Y-81313931D01*
X96592280Y-81346351D01*
X96025948Y-81912682D01*
X95987590Y-81945833D01*
X95981473Y-81950386D01*
X95981468Y-81950392D01*
X95955934Y-81980821D01*
X95945121Y-81992622D01*
X95945150Y-81992648D01*
X95938406Y-82000225D01*
X95921204Y-82021981D01*
X95914815Y-82029824D01*
X95896034Y-82052208D01*
X95868694Y-82084790D01*
X95862961Y-82093507D01*
X95862635Y-82093957D01*
X95862368Y-82094437D01*
X95856894Y-82103313D01*
X95826569Y-82168342D01*
X95822151Y-82177467D01*
X95789955Y-82241577D01*
X95786396Y-82251354D01*
X95786177Y-82251881D01*
X95786023Y-82252427D01*
X95782742Y-82262328D01*
X95768233Y-82332593D01*
X95766038Y-82342496D01*
X95749498Y-82412283D01*
X95748293Y-82422601D01*
X95748197Y-82423190D01*
X95748172Y-82423785D01*
X95747265Y-82434146D01*
X95749352Y-82505828D01*
X95749500Y-82515982D01*
X95749500Y-83943809D01*
X95730590Y-84057129D01*
X95675910Y-84158169D01*
X95591385Y-84235980D01*
X95554859Y-84256817D01*
X95372338Y-84346826D01*
X95372333Y-84346829D01*
X95127044Y-84510726D01*
X94905241Y-84705241D01*
X94710726Y-84927044D01*
X94546829Y-85172333D01*
X94546826Y-85172338D01*
X94416349Y-85436919D01*
X94416346Y-85436925D01*
X94321521Y-85716269D01*
X94321518Y-85716280D01*
X94263965Y-86005621D01*
X94244671Y-86300000D01*
X94263965Y-86594378D01*
X94321518Y-86883719D01*
X94321521Y-86883730D01*
X94416346Y-87163074D01*
X94535651Y-87405000D01*
X94546828Y-87427665D01*
X94652847Y-87586333D01*
X94710727Y-87672957D01*
X94905241Y-87894758D01*
X95003512Y-87980939D01*
X95127043Y-88089273D01*
X95372335Y-88253172D01*
X95575302Y-88353264D01*
X95636925Y-88383653D01*
X95791670Y-88436182D01*
X95916278Y-88478481D01*
X96205620Y-88536034D01*
X96205618Y-88536034D01*
X96273629Y-88540491D01*
X96375005Y-88547136D01*
X96486845Y-88573417D01*
X96584093Y-88634588D01*
X96656209Y-88724021D01*
X96695379Y-88832025D01*
X96697928Y-88847866D01*
X96734782Y-89116000D01*
X96767683Y-89233422D01*
X96814600Y-89400869D01*
X96814601Y-89400872D01*
X96814602Y-89400874D01*
X96814602Y-89400875D01*
X96871663Y-89532242D01*
X96932462Y-89672215D01*
X97079125Y-89913394D01*
X97086175Y-89924986D01*
X97086175Y-89924987D01*
X97272866Y-90154461D01*
X97272869Y-90154464D01*
X97272874Y-90154470D01*
X97489083Y-90356395D01*
X97595692Y-90431648D01*
X97730771Y-90526997D01*
X97730772Y-90526998D01*
X97730774Y-90526999D01*
X97976168Y-90654152D01*
X97993449Y-90663106D01*
X98123504Y-90709327D01*
X98272201Y-90762174D01*
X98561852Y-90822364D01*
X98561853Y-90822364D01*
X98561858Y-90822365D01*
X98783125Y-90837500D01*
X98783129Y-90837500D01*
X99406875Y-90837500D01*
X99628141Y-90822365D01*
X99628144Y-90822364D01*
X99628148Y-90822364D01*
X99917799Y-90762174D01*
X100179009Y-90669340D01*
X100196550Y-90663106D01*
X100196551Y-90663105D01*
X100196555Y-90663104D01*
X100459226Y-90526999D01*
X100700917Y-90356395D01*
X100917126Y-90154470D01*
X101103826Y-89924985D01*
X101257538Y-89672215D01*
X101375400Y-89400869D01*
X101455217Y-89116002D01*
X101495500Y-88822919D01*
X101495500Y-88527081D01*
X101455217Y-88233998D01*
X101375400Y-87949131D01*
X101257538Y-87677785D01*
X101201925Y-87586333D01*
X101159203Y-87479687D01*
X101153424Y-87364946D01*
X101185215Y-87254544D01*
X101201926Y-87223665D01*
X101257538Y-87132215D01*
X101375400Y-86860869D01*
X101455217Y-86576002D01*
X101495500Y-86282919D01*
X101495500Y-85987081D01*
X101455217Y-85693998D01*
X101375400Y-85409131D01*
X101375393Y-85409116D01*
X101336584Y-85319768D01*
X101257538Y-85137785D01*
X101201925Y-85046333D01*
X101159203Y-84939687D01*
X101153424Y-84824946D01*
X101185215Y-84714544D01*
X101201926Y-84683665D01*
X101227762Y-84641179D01*
X101257538Y-84592215D01*
X101375400Y-84320869D01*
X101455217Y-84036002D01*
X101495500Y-83742919D01*
X101495500Y-83447081D01*
X101455217Y-83153998D01*
X101375400Y-82869131D01*
X101257538Y-82597785D01*
X101201925Y-82506333D01*
X101159203Y-82399687D01*
X101153424Y-82284946D01*
X101185215Y-82174544D01*
X101201926Y-82143665D01*
X101215163Y-82121898D01*
X101257538Y-82052215D01*
X101375400Y-81780869D01*
X101375400Y-81780867D01*
X101379922Y-81770458D01*
X101442413Y-81674053D01*
X101532821Y-81603163D01*
X101641348Y-81565469D01*
X101700029Y-81560500D01*
X102457217Y-81560500D01*
X102570537Y-81579410D01*
X102671577Y-81634090D01*
X102749388Y-81718615D01*
X102795538Y-81823826D01*
X102802966Y-81861971D01*
X102804553Y-81873520D01*
X102864407Y-82161555D01*
X102962925Y-82438760D01*
X103088025Y-82680189D01*
X103098278Y-82699976D01*
X103267935Y-82940326D01*
X103468740Y-83155335D01*
X103696951Y-83340999D01*
X103948318Y-83493859D01*
X104218159Y-83611067D01*
X104218163Y-83611068D01*
X104501443Y-83690440D01*
X104629522Y-83708043D01*
X104792902Y-83730500D01*
X104792907Y-83730500D01*
X105087093Y-83730500D01*
X105087098Y-83730500D01*
X105314516Y-83699241D01*
X105378556Y-83690440D01*
X105527391Y-83648738D01*
X105661841Y-83611067D01*
X105931682Y-83493859D01*
X105979976Y-83464490D01*
X106086618Y-83421769D01*
X106201359Y-83415989D01*
X106311760Y-83447778D01*
X106405858Y-83513692D01*
X106408089Y-83515903D01*
X106631511Y-83739325D01*
X106650620Y-83763037D01*
X106651512Y-83762265D01*
X106667855Y-83781126D01*
X106667856Y-83781127D01*
X106667857Y-83781128D01*
X106699320Y-83808390D01*
X106717543Y-83825357D01*
X106719713Y-83827527D01*
X106721412Y-83829226D01*
X106725777Y-83832493D01*
X106745181Y-83848129D01*
X106776625Y-83875376D01*
X106791832Y-83885148D01*
X106807665Y-83893793D01*
X106807669Y-83893796D01*
X106807672Y-83893797D01*
X106846675Y-83908345D01*
X106869688Y-83917877D01*
X106907543Y-83935165D01*
X106907545Y-83935165D01*
X106907547Y-83935166D01*
X106924858Y-83940249D01*
X106942513Y-83944090D01*
X106942514Y-83944090D01*
X106942517Y-83944091D01*
X106984032Y-83947060D01*
X107008790Y-83949721D01*
X107014201Y-83950500D01*
X107019651Y-83950500D01*
X107044548Y-83951388D01*
X107086073Y-83954359D01*
X107086080Y-83954357D01*
X107110969Y-83952578D01*
X107111053Y-83953755D01*
X107141335Y-83950500D01*
X110258665Y-83950500D01*
X110288946Y-83953755D01*
X110289031Y-83952578D01*
X110313919Y-83954357D01*
X110313927Y-83954359D01*
X110355451Y-83951388D01*
X110380349Y-83950500D01*
X110385795Y-83950500D01*
X110385799Y-83950500D01*
X110391196Y-83949723D01*
X110415963Y-83947060D01*
X110457483Y-83944091D01*
X110457488Y-83944089D01*
X110475137Y-83940250D01*
X110492453Y-83935165D01*
X110492457Y-83935165D01*
X110530319Y-83917873D01*
X110553315Y-83908347D01*
X110592331Y-83893796D01*
X110592335Y-83893792D01*
X110592337Y-83893792D01*
X110608161Y-83885152D01*
X110623367Y-83875380D01*
X110623367Y-83875379D01*
X110623373Y-83875377D01*
X110654847Y-83848104D01*
X110674226Y-83832490D01*
X110678593Y-83829221D01*
X110682457Y-83825356D01*
X110700682Y-83808387D01*
X110732143Y-83781128D01*
X110732145Y-83781124D01*
X110748491Y-83762261D01*
X110749384Y-83763035D01*
X110768489Y-83739323D01*
X110987848Y-83519964D01*
X111053285Y-83468558D01*
X111108667Y-83434879D01*
X111215314Y-83392159D01*
X111330055Y-83386380D01*
X111440456Y-83418171D01*
X111471325Y-83434876D01*
X111568318Y-83493859D01*
X111599542Y-83507421D01*
X111695943Y-83569908D01*
X111766835Y-83660314D01*
X111804530Y-83768841D01*
X111809500Y-83827527D01*
X111809500Y-84084572D01*
X111790590Y-84197892D01*
X111735910Y-84298932D01*
X111707280Y-84331352D01*
X103136352Y-92902280D01*
X103042852Y-92969038D01*
X102932741Y-93001820D01*
X102889572Y-93004500D01*
X101593610Y-93004500D01*
X101480290Y-92985590D01*
X101379250Y-92930910D01*
X101301439Y-92846385D01*
X101273502Y-92794539D01*
X101257541Y-92757793D01*
X101257538Y-92757785D01*
X101103826Y-92505015D01*
X101103824Y-92505012D01*
X100917133Y-92275538D01*
X100917130Y-92275535D01*
X100917126Y-92275530D01*
X100700917Y-92073605D01*
X100585519Y-91992148D01*
X100459228Y-91903002D01*
X100459227Y-91903001D01*
X100196550Y-91766893D01*
X99917797Y-91667825D01*
X99628151Y-91607636D01*
X99628141Y-91607634D01*
X99406875Y-91592500D01*
X99406871Y-91592500D01*
X98783129Y-91592500D01*
X98783125Y-91592500D01*
X98561858Y-91607634D01*
X98561848Y-91607636D01*
X98272202Y-91667825D01*
X97993449Y-91766893D01*
X97730772Y-91903001D01*
X97730771Y-91903002D01*
X97489082Y-92073605D01*
X97417150Y-92140785D01*
X97321424Y-92204311D01*
X97210258Y-92233313D01*
X97095698Y-92224648D01*
X97088626Y-92222832D01*
X97083734Y-92221521D01*
X96794375Y-92163965D01*
X96794381Y-92163965D01*
X96500000Y-92144671D01*
X96205621Y-92163965D01*
X95916280Y-92221518D01*
X95916269Y-92221521D01*
X95636925Y-92316346D01*
X95636919Y-92316349D01*
X95372338Y-92446826D01*
X95372333Y-92446829D01*
X95127044Y-92610726D01*
X94905241Y-92805241D01*
X94710726Y-93027044D01*
X94540480Y-93281836D01*
X94538048Y-93280211D01*
X94479114Y-93351720D01*
X94381218Y-93411849D01*
X94269103Y-93436933D01*
X94154917Y-93424254D01*
X94051036Y-93375186D01*
X93968715Y-93295047D01*
X93959912Y-93281573D01*
X93959520Y-93281836D01*
X93903930Y-93198640D01*
X93789273Y-93027043D01*
X93630840Y-92846385D01*
X93594758Y-92805241D01*
X93476588Y-92701609D01*
X93372957Y-92610727D01*
X93162122Y-92469851D01*
X93078410Y-92391175D01*
X93024777Y-92289575D01*
X93007039Y-92176066D01*
X93027118Y-92062947D01*
X93082840Y-91962478D01*
X93160860Y-91890339D01*
X93265496Y-91819762D01*
X93478608Y-91627875D01*
X93662940Y-91408197D01*
X93814905Y-91165002D01*
X93931545Y-90903025D01*
X94010589Y-90627364D01*
X94032761Y-90469597D01*
X94050500Y-90343389D01*
X94050500Y-89728404D01*
X94050499Y-89728386D01*
X94035503Y-89513929D01*
X93975880Y-89233425D01*
X93962979Y-89197981D01*
X93877799Y-88963950D01*
X93877798Y-88963949D01*
X93743169Y-88710747D01*
X93574610Y-88478746D01*
X93574608Y-88478744D01*
X93574606Y-88478741D01*
X93375404Y-88272462D01*
X93375398Y-88272457D01*
X93149434Y-88095914D01*
X93149433Y-88095913D01*
X93149425Y-88095907D01*
X93149415Y-88095901D01*
X92925000Y-87966335D01*
X92836317Y-87893299D01*
X92776154Y-87795424D01*
X92751030Y-87683318D01*
X92750500Y-87664092D01*
X92750500Y-84333425D01*
X92769410Y-84220105D01*
X92824090Y-84119065D01*
X92908615Y-84041254D01*
X92946497Y-84019751D01*
X93027753Y-83980121D01*
X93265496Y-83819762D01*
X93278141Y-83808377D01*
X93382727Y-83714207D01*
X93478608Y-83627875D01*
X93662940Y-83408197D01*
X93814905Y-83165002D01*
X93931545Y-82903025D01*
X93995442Y-82680189D01*
X94010585Y-82627379D01*
X94010585Y-82627375D01*
X94010589Y-82627364D01*
X94036057Y-82446153D01*
X94050500Y-82343389D01*
X94050500Y-81728404D01*
X94050499Y-81728386D01*
X94043905Y-81634090D01*
X94035503Y-81513929D01*
X93975880Y-81233425D01*
X93964781Y-81202932D01*
X93877799Y-80963950D01*
X93877798Y-80963949D01*
X93743169Y-80710747D01*
X93574610Y-80478746D01*
X93574608Y-80478744D01*
X93574606Y-80478741D01*
X93375404Y-80272462D01*
X93375398Y-80272457D01*
X93149434Y-80095914D01*
X93149433Y-80095913D01*
X93149425Y-80095907D01*
X93147435Y-80094758D01*
X92925000Y-79966335D01*
X92836317Y-79893299D01*
X92776154Y-79795424D01*
X92751030Y-79683318D01*
X92750500Y-79664092D01*
X92750500Y-75818425D01*
X92769410Y-75705105D01*
X92824090Y-75604065D01*
X92908615Y-75526254D01*
X92946497Y-75504751D01*
X93027753Y-75465121D01*
X93265496Y-75304762D01*
X93327281Y-75249131D01*
X93384810Y-75197331D01*
X93478608Y-75112875D01*
X93662940Y-74893197D01*
X93814905Y-74650002D01*
X93931545Y-74388025D01*
X93996681Y-74160869D01*
X94010585Y-74112379D01*
X94010585Y-74112375D01*
X94010589Y-74112364D01*
X94043808Y-73876000D01*
X94050500Y-73828389D01*
X94050500Y-73213404D01*
X94050499Y-73213386D01*
X94050403Y-73212006D01*
X94035503Y-72998929D01*
X93975880Y-72718425D01*
X93877799Y-72448950D01*
X93743169Y-72195747D01*
X93574610Y-71963746D01*
X93574608Y-71963744D01*
X93574606Y-71963741D01*
X93375404Y-71757462D01*
X93375398Y-71757457D01*
X93149434Y-71580914D01*
X93149433Y-71580913D01*
X93149425Y-71580907D01*
X93149415Y-71580901D01*
X92925000Y-71451335D01*
X92836317Y-71378299D01*
X92776154Y-71280424D01*
X92751030Y-71168318D01*
X92750500Y-71149092D01*
X92750500Y-67333425D01*
X92769410Y-67220105D01*
X92824090Y-67119065D01*
X92908615Y-67041254D01*
X92946497Y-67019751D01*
X93027753Y-66980121D01*
X93265496Y-66819762D01*
X93478608Y-66627875D01*
X93662940Y-66408197D01*
X93814905Y-66165002D01*
X93931545Y-65903025D01*
X94010589Y-65627364D01*
X94040049Y-65417748D01*
X94050500Y-65343389D01*
X94050500Y-64728404D01*
X94050499Y-64728386D01*
X94035503Y-64513934D01*
X94035503Y-64513929D01*
X93975880Y-64233425D01*
X93877799Y-63963950D01*
X93743169Y-63710747D01*
X93574610Y-63478746D01*
X93574608Y-63478744D01*
X93574606Y-63478741D01*
X93375404Y-63272462D01*
X93375398Y-63272457D01*
X93149434Y-63095914D01*
X93149433Y-63095913D01*
X93149425Y-63095907D01*
X93149420Y-63095904D01*
X93149410Y-63095897D01*
X93147736Y-63094931D01*
X93146644Y-63094031D01*
X93139315Y-63089088D01*
X93139788Y-63088385D01*
X93059053Y-63021894D01*
X92998890Y-62924019D01*
X92973767Y-62811913D01*
X92986406Y-62697723D01*
X93035437Y-62593825D01*
X93075448Y-62545918D01*
X93364608Y-62256758D01*
X93458104Y-62190004D01*
X93568215Y-62157222D01*
X93683004Y-62161970D01*
X93723564Y-62173062D01*
X93916278Y-62238481D01*
X94205620Y-62296034D01*
X94205618Y-62296034D01*
X94236225Y-62298040D01*
X94500000Y-62315329D01*
X94794380Y-62296034D01*
X95083722Y-62238481D01*
X95363077Y-62143652D01*
X95627665Y-62013172D01*
X95872957Y-61849273D01*
X96094758Y-61654758D01*
X96289273Y-61432957D01*
X96453172Y-61187665D01*
X96583652Y-60923077D01*
X96678481Y-60643722D01*
X96736034Y-60354380D01*
X96754842Y-60067422D01*
X96781122Y-59955589D01*
X96842293Y-59858341D01*
X96931726Y-59786225D01*
X97039729Y-59747055D01*
X97154599Y-59745075D01*
X97263888Y-59780502D01*
G37*
G04 #@! TD.AperFunction*
G04 #@! TA.AperFunction,Conductor*
G36*
X136015754Y-56496621D02*
G01*
X136021101Y-56497655D01*
X136074662Y-56500500D01*
X136894573Y-56500500D01*
X137007893Y-56519410D01*
X137108933Y-56574090D01*
X137141353Y-56602720D01*
X137147280Y-56608647D01*
X137214038Y-56702147D01*
X137246820Y-56812258D01*
X137249500Y-56855427D01*
X137249500Y-87500500D01*
X137230590Y-87613820D01*
X137175910Y-87714860D01*
X137091385Y-87792671D01*
X136986174Y-87838821D01*
X136900500Y-87849500D01*
X134271736Y-87849500D01*
X134158416Y-87830590D01*
X134057376Y-87775910D01*
X133979565Y-87691385D01*
X133933415Y-87586174D01*
X133923928Y-87471680D01*
X133944741Y-87378537D01*
X133968848Y-87313902D01*
X134024369Y-87165046D01*
X134041843Y-87084716D01*
X134085196Y-86885429D01*
X134105610Y-86599997D01*
X134105610Y-86592032D01*
X134124520Y-86478712D01*
X134179200Y-86377672D01*
X134187241Y-86367721D01*
X134231302Y-86315214D01*
X134231304Y-86315209D01*
X134236988Y-86306567D01*
X134237362Y-86306048D01*
X134237689Y-86305463D01*
X134243102Y-86296686D01*
X134243110Y-86296677D01*
X134273415Y-86231688D01*
X134277840Y-86222548D01*
X134310038Y-86158437D01*
X134310038Y-86158436D01*
X134310040Y-86158433D01*
X134310041Y-86158428D01*
X134313583Y-86148697D01*
X134313823Y-86148117D01*
X134313997Y-86147504D01*
X134317250Y-86137685D01*
X134317256Y-86137673D01*
X134331764Y-86067404D01*
X134333956Y-86057521D01*
X134350499Y-85987725D01*
X134350498Y-85987725D01*
X134350500Y-85987721D01*
X134350500Y-85987716D01*
X134351706Y-85977398D01*
X134351802Y-85976802D01*
X134351829Y-85976192D01*
X134352733Y-85965855D01*
X134350648Y-85894190D01*
X134350500Y-85884038D01*
X134350500Y-83980095D01*
X134354185Y-83929514D01*
X134355289Y-83921976D01*
X134351828Y-83882418D01*
X134351129Y-83866426D01*
X134351091Y-83866429D01*
X134350501Y-83856301D01*
X134349049Y-83843883D01*
X134347279Y-83828736D01*
X134346248Y-83818643D01*
X134346065Y-83816546D01*
X134339998Y-83747203D01*
X134339997Y-83747200D01*
X134339997Y-83747198D01*
X134337898Y-83737031D01*
X134337802Y-83736436D01*
X134337631Y-83735833D01*
X134335241Y-83725753D01*
X134335241Y-83725745D01*
X134310684Y-83658275D01*
X134307381Y-83648771D01*
X134284814Y-83580665D01*
X134284812Y-83580662D01*
X134280424Y-83571251D01*
X134280192Y-83570693D01*
X134279906Y-83570179D01*
X134275238Y-83560886D01*
X134275237Y-83560883D01*
X134244199Y-83513692D01*
X134235814Y-83500943D01*
X134230359Y-83492380D01*
X134207918Y-83455997D01*
X134192712Y-83431344D01*
X134192711Y-83431343D01*
X134192708Y-83431338D01*
X134186257Y-83423179D01*
X134185915Y-83422706D01*
X134185502Y-83422255D01*
X134178831Y-83414305D01*
X134126660Y-83365084D01*
X134119379Y-83358011D01*
X133287320Y-82525952D01*
X133254157Y-82487578D01*
X133249609Y-82481469D01*
X133219193Y-82455947D01*
X133207388Y-82445129D01*
X133207362Y-82445159D01*
X133199779Y-82438410D01*
X133178015Y-82421202D01*
X133170142Y-82414788D01*
X133115217Y-82368700D01*
X133106503Y-82362968D01*
X133106040Y-82362634D01*
X133105528Y-82362348D01*
X133096677Y-82356889D01*
X133031659Y-82326570D01*
X133022555Y-82322163D01*
X132958433Y-82289960D01*
X132958430Y-82289959D01*
X132948670Y-82286407D01*
X132948107Y-82286173D01*
X132947558Y-82286018D01*
X132937678Y-82282744D01*
X132867387Y-82268229D01*
X132857484Y-82266033D01*
X132787727Y-82249500D01*
X132777401Y-82248294D01*
X132776799Y-82248196D01*
X132776205Y-82248171D01*
X132765856Y-82247265D01*
X132697879Y-82249244D01*
X132694167Y-82249352D01*
X132684017Y-82249500D01*
X127078879Y-82249500D01*
X127028307Y-82245816D01*
X127020759Y-82244710D01*
X126988097Y-82247568D01*
X126981194Y-82248172D01*
X126965213Y-82248869D01*
X126965216Y-82248909D01*
X126955065Y-82249500D01*
X126927532Y-82252717D01*
X126917457Y-82253747D01*
X126845977Y-82260001D01*
X126835749Y-82262113D01*
X126835221Y-82262198D01*
X126834675Y-82262353D01*
X126824523Y-82264759D01*
X126757104Y-82289296D01*
X126747530Y-82292624D01*
X126679443Y-82315186D01*
X126670006Y-82319587D01*
X126669483Y-82319803D01*
X126668997Y-82320075D01*
X126659660Y-82324764D01*
X126599734Y-82364178D01*
X126591178Y-82369629D01*
X126530126Y-82407286D01*
X126521943Y-82413757D01*
X126521486Y-82414086D01*
X126521067Y-82414471D01*
X126513085Y-82421168D01*
X126463848Y-82473356D01*
X126456778Y-82480634D01*
X124951280Y-83986132D01*
X124857780Y-84052890D01*
X124747669Y-84085672D01*
X124632880Y-84080924D01*
X124525852Y-84039162D01*
X124438184Y-83964910D01*
X124379375Y-83866216D01*
X124355798Y-83753774D01*
X124355500Y-83739352D01*
X124355500Y-83447085D01*
X124355498Y-83447067D01*
X124351526Y-83418171D01*
X124315217Y-83153998D01*
X124235400Y-82869131D01*
X124117538Y-82597785D01*
X124061925Y-82506333D01*
X124019203Y-82399687D01*
X124013424Y-82284946D01*
X124045215Y-82174544D01*
X124061926Y-82143665D01*
X124075163Y-82121898D01*
X124117538Y-82052215D01*
X124235400Y-81780869D01*
X124315217Y-81496002D01*
X124355500Y-81202919D01*
X124355500Y-80907081D01*
X124315217Y-80613998D01*
X124235400Y-80329131D01*
X124117538Y-80057785D01*
X124061925Y-79966333D01*
X124019203Y-79859687D01*
X124013424Y-79744946D01*
X124045215Y-79634544D01*
X124061926Y-79603665D01*
X124090386Y-79556864D01*
X124117538Y-79512215D01*
X124235400Y-79240869D01*
X124315217Y-78956002D01*
X124355500Y-78662919D01*
X124355500Y-78367081D01*
X124321746Y-78121497D01*
X124315218Y-78074004D01*
X124315217Y-78074002D01*
X124315217Y-78073998D01*
X124308708Y-78050770D01*
X124296342Y-77936553D01*
X124321732Y-77824507D01*
X124382127Y-77726776D01*
X124397970Y-77709842D01*
X124589323Y-77518489D01*
X124613035Y-77499384D01*
X124612261Y-77498491D01*
X124631124Y-77482145D01*
X124631128Y-77482143D01*
X124658387Y-77450682D01*
X124675356Y-77432457D01*
X124679221Y-77428593D01*
X124682493Y-77424220D01*
X124698135Y-77404811D01*
X124702616Y-77399640D01*
X124725377Y-77373373D01*
X124725380Y-77373365D01*
X124735150Y-77358164D01*
X124743792Y-77342337D01*
X124743792Y-77342335D01*
X124743796Y-77342331D01*
X124758347Y-77303315D01*
X124767877Y-77280310D01*
X124785165Y-77242457D01*
X124785165Y-77242453D01*
X124790250Y-77225137D01*
X124794089Y-77207488D01*
X124794091Y-77207483D01*
X124797060Y-77165963D01*
X124799723Y-77141196D01*
X124800500Y-77135799D01*
X124800500Y-77130347D01*
X124801389Y-77105451D01*
X124802169Y-77094544D01*
X124804359Y-77063927D01*
X124804357Y-77063920D01*
X124802578Y-77039029D01*
X124803754Y-77038944D01*
X124800500Y-77008667D01*
X124800500Y-73244539D01*
X124819410Y-73131219D01*
X124874090Y-73030179D01*
X124958615Y-72952368D01*
X125063826Y-72906218D01*
X125178320Y-72896731D01*
X125289692Y-72924934D01*
X125385871Y-72987771D01*
X125456436Y-73078433D01*
X125472912Y-73113370D01*
X125543362Y-73287081D01*
X125576830Y-73369604D01*
X125661289Y-73522802D01*
X125743034Y-73671079D01*
X125943730Y-73950785D01*
X126176099Y-74204791D01*
X126436880Y-74429531D01*
X126436886Y-74429535D01*
X126722410Y-74621851D01*
X126722420Y-74621857D01*
X127028676Y-74779047D01*
X127028680Y-74779048D01*
X127028683Y-74779050D01*
X127351399Y-74898922D01*
X127686027Y-74979783D01*
X127686036Y-74979784D01*
X127686042Y-74979785D01*
X128027861Y-75020499D01*
X128027863Y-75020499D01*
X128027870Y-75020500D01*
X128027872Y-75020500D01*
X129285984Y-75020500D01*
X129285990Y-75020500D01*
X129543655Y-75005209D01*
X129882486Y-74944313D01*
X130211736Y-74843769D01*
X130526783Y-74704990D01*
X130823206Y-74529924D01*
X131096842Y-74321027D01*
X131343851Y-74081233D01*
X131560764Y-73813907D01*
X131744538Y-73522802D01*
X131892592Y-73212006D01*
X132002848Y-72885880D01*
X132073758Y-72549002D01*
X132104327Y-72206103D01*
X132094125Y-71861994D01*
X132043297Y-71521508D01*
X131952554Y-71189423D01*
X131823172Y-70870401D01*
X131823170Y-70870398D01*
X131823168Y-70870392D01*
X131786842Y-70804501D01*
X131748691Y-70696133D01*
X131747795Y-70581249D01*
X131784250Y-70472299D01*
X131845690Y-70389229D01*
X133586340Y-68648579D01*
X133679837Y-68581824D01*
X133765029Y-68553068D01*
X133896691Y-68526880D01*
X134182252Y-68429945D01*
X134452718Y-68296566D01*
X134703461Y-68129025D01*
X134930189Y-67930189D01*
X135129025Y-67703461D01*
X135296566Y-67452718D01*
X135429945Y-67182252D01*
X135526880Y-66896691D01*
X135585713Y-66600920D01*
X135605436Y-66300000D01*
X135585713Y-65999080D01*
X135526880Y-65703309D01*
X135461144Y-65509658D01*
X135442625Y-65396277D01*
X135461925Y-65283023D01*
X135465101Y-65274253D01*
X135552387Y-65042961D01*
X135597655Y-64808899D01*
X135600500Y-64755338D01*
X135600500Y-62764662D01*
X135597655Y-62711101D01*
X135578794Y-62613583D01*
X135575842Y-62498737D01*
X135585913Y-62451299D01*
X135589886Y-62437418D01*
X135591113Y-62421302D01*
X135597248Y-62377564D01*
X135600500Y-62361741D01*
X135600500Y-62311304D01*
X135601508Y-62284803D01*
X135605337Y-62234523D01*
X135603296Y-62218497D01*
X135600500Y-62174407D01*
X135600500Y-56839274D01*
X135619410Y-56725954D01*
X135674090Y-56624914D01*
X135758615Y-56547103D01*
X135863826Y-56500953D01*
X135978320Y-56491466D01*
X136015754Y-56496621D01*
G37*
G04 #@! TD.AperFunction*
G04 #@! TA.AperFunction,Conductor*
G36*
X133482143Y-41019410D02*
G01*
X133583183Y-41074090D01*
X133660994Y-41158615D01*
X133707144Y-41263826D01*
X133716631Y-41378320D01*
X133688428Y-41489692D01*
X133625591Y-41585871D01*
X133576722Y-41629819D01*
X133363785Y-41787743D01*
X133363764Y-41787760D01*
X133061613Y-42061613D01*
X132787760Y-42363764D01*
X132787743Y-42363785D01*
X132544830Y-42691315D01*
X132544821Y-42691328D01*
X132335175Y-43041102D01*
X132335169Y-43041114D01*
X132160815Y-43409753D01*
X132160808Y-43409770D01*
X132023431Y-43793717D01*
X131924344Y-44189289D01*
X131864505Y-44592685D01*
X131844495Y-45000000D01*
X131864505Y-45407314D01*
X131924344Y-45810710D01*
X131980459Y-46034731D01*
X132013089Y-46164997D01*
X132023431Y-46206282D01*
X132160808Y-46590229D01*
X132160815Y-46590246D01*
X132335169Y-46958885D01*
X132335175Y-46958897D01*
X132544821Y-47308671D01*
X132544830Y-47308684D01*
X132787743Y-47636214D01*
X132787760Y-47636235D01*
X133061613Y-47938386D01*
X133363764Y-48212239D01*
X133363785Y-48212256D01*
X133583464Y-48375181D01*
X133663219Y-48457874D01*
X133711802Y-48561983D01*
X133723949Y-48676226D01*
X133698343Y-48788223D01*
X133637759Y-48885838D01*
X133548762Y-48958491D01*
X133440997Y-48998311D01*
X133375565Y-49004500D01*
X131645402Y-49004500D01*
X131532082Y-48985590D01*
X131431042Y-48930910D01*
X131353231Y-48846385D01*
X131335531Y-48816064D01*
X131241725Y-48635029D01*
X131241723Y-48635026D01*
X131241722Y-48635024D01*
X131072065Y-48394674D01*
X130871260Y-48179665D01*
X130869453Y-48178195D01*
X130719119Y-48055889D01*
X130643049Y-47994001D01*
X130391682Y-47841141D01*
X130121841Y-47723933D01*
X130121839Y-47723932D01*
X130121836Y-47723931D01*
X129838557Y-47644560D01*
X129746131Y-47631856D01*
X129636442Y-47597692D01*
X129543789Y-47529762D01*
X129478212Y-47435429D01*
X129446819Y-47324914D01*
X129453011Y-47210194D01*
X129496117Y-47103700D01*
X129563544Y-47023715D01*
X129637461Y-46958891D01*
X129670189Y-46930189D01*
X129869025Y-46703461D01*
X130036566Y-46452718D01*
X130169945Y-46182252D01*
X130266880Y-45896691D01*
X130325713Y-45600920D01*
X130340500Y-45375310D01*
X130340500Y-44824690D01*
X130325713Y-44599080D01*
X130266880Y-44303309D01*
X130169945Y-44017748D01*
X130079823Y-43834998D01*
X130036570Y-43747289D01*
X130036567Y-43747285D01*
X130036566Y-43747282D01*
X129869025Y-43496539D01*
X129844563Y-43468646D01*
X129670189Y-43269810D01*
X129471890Y-43095907D01*
X129443461Y-43070975D01*
X129192718Y-42903434D01*
X129192714Y-42903432D01*
X129192710Y-42903429D01*
X128922261Y-42770059D01*
X128922258Y-42770058D01*
X128922252Y-42770055D01*
X128636691Y-42673120D01*
X128636686Y-42673119D01*
X128340918Y-42614286D01*
X128040000Y-42594564D01*
X127739081Y-42614286D01*
X127443311Y-42673119D01*
X127443309Y-42673119D01*
X127249659Y-42738855D01*
X127136274Y-42757374D01*
X127023020Y-42738074D01*
X127014253Y-42734898D01*
X126782964Y-42647613D01*
X126689336Y-42629505D01*
X126548899Y-42602345D01*
X126495338Y-42599500D01*
X124504662Y-42599500D01*
X124451101Y-42602345D01*
X124389359Y-42614286D01*
X124217035Y-42647613D01*
X123994002Y-42731782D01*
X123993989Y-42731788D01*
X123788380Y-42852443D01*
X123606116Y-43006115D01*
X123606115Y-43006116D01*
X123452443Y-43188380D01*
X123331788Y-43393989D01*
X123331782Y-43394002D01*
X123247613Y-43617035D01*
X123229489Y-43710751D01*
X123205460Y-43834998D01*
X123202345Y-43851103D01*
X123199500Y-43904669D01*
X123199500Y-44053085D01*
X123180590Y-44166405D01*
X123125910Y-44267445D01*
X123041385Y-44345256D01*
X122936174Y-44391406D01*
X122821680Y-44400893D01*
X122710308Y-44372690D01*
X122614129Y-44309853D01*
X122543564Y-44219191D01*
X122520022Y-44165268D01*
X122469944Y-44017744D01*
X122336570Y-43747289D01*
X122336567Y-43747285D01*
X122336566Y-43747282D01*
X122169025Y-43496539D01*
X122144563Y-43468646D01*
X121970189Y-43269810D01*
X121771890Y-43095907D01*
X121743461Y-43070975D01*
X121492718Y-42903434D01*
X121492714Y-42903432D01*
X121492710Y-42903429D01*
X121222261Y-42770059D01*
X121222258Y-42770058D01*
X121222252Y-42770055D01*
X120936691Y-42673120D01*
X120936686Y-42673119D01*
X120640918Y-42614286D01*
X120340000Y-42594564D01*
X120039081Y-42614286D01*
X119743311Y-42673119D01*
X119743309Y-42673119D01*
X119549659Y-42738855D01*
X119436274Y-42757374D01*
X119323020Y-42738074D01*
X119314253Y-42734898D01*
X119082964Y-42647613D01*
X118989336Y-42629505D01*
X118848899Y-42602345D01*
X118795338Y-42599500D01*
X116804662Y-42599500D01*
X116751101Y-42602345D01*
X116689359Y-42614286D01*
X116517035Y-42647613D01*
X116294002Y-42731782D01*
X116293989Y-42731788D01*
X116088380Y-42852443D01*
X115906116Y-43006115D01*
X115906115Y-43006116D01*
X115752443Y-43188380D01*
X115631788Y-43393989D01*
X115631782Y-43394002D01*
X115547613Y-43617035D01*
X115529489Y-43710751D01*
X115502345Y-43851101D01*
X115499500Y-43904662D01*
X115499500Y-46295338D01*
X115502345Y-46348899D01*
X115517115Y-46425269D01*
X115547613Y-46582964D01*
X115631782Y-46805997D01*
X115631788Y-46806010D01*
X115752443Y-47011619D01*
X115906111Y-47193879D01*
X115906113Y-47193881D01*
X115906116Y-47193884D01*
X115915302Y-47201629D01*
X115989746Y-47289124D01*
X116031750Y-47396057D01*
X116036756Y-47510835D01*
X116004224Y-47621019D01*
X115937677Y-47714671D01*
X115844327Y-47781640D01*
X115829383Y-47788554D01*
X115708331Y-47841134D01*
X115708318Y-47841141D01*
X115456949Y-47994002D01*
X115228741Y-48179663D01*
X115228741Y-48179664D01*
X115228740Y-48179665D01*
X115027935Y-48394674D01*
X114949979Y-48505113D01*
X114858276Y-48635026D01*
X114722925Y-48896239D01*
X114624407Y-49173444D01*
X114564552Y-49461485D01*
X114564550Y-49461495D01*
X114549500Y-49681533D01*
X114549500Y-50328466D01*
X114564550Y-50548504D01*
X114564552Y-50548514D01*
X114624407Y-50836555D01*
X114722925Y-51113760D01*
X114845336Y-51350000D01*
X114858278Y-51374976D01*
X115027935Y-51615326D01*
X115228740Y-51830335D01*
X115228741Y-51830335D01*
X115228741Y-51830336D01*
X115230525Y-51831787D01*
X115456951Y-52015999D01*
X115708318Y-52168859D01*
X115978159Y-52286067D01*
X116028382Y-52300138D01*
X116261443Y-52365440D01*
X116371305Y-52380540D01*
X116552902Y-52405500D01*
X116646020Y-52405500D01*
X116759340Y-52424410D01*
X116860380Y-52479090D01*
X116892800Y-52507720D01*
X117085414Y-52700334D01*
X117091587Y-52706665D01*
X117149938Y-52768051D01*
X117149939Y-52768052D01*
X117191340Y-52796868D01*
X117212515Y-52812834D01*
X117251593Y-52844698D01*
X117262723Y-52850511D01*
X117265903Y-52852173D01*
X117303689Y-52875065D01*
X117316946Y-52884292D01*
X117316949Y-52884294D01*
X117316950Y-52884294D01*
X117316951Y-52884295D01*
X117363314Y-52904190D01*
X117387240Y-52915554D01*
X117431951Y-52938909D01*
X117431953Y-52938910D01*
X117447471Y-52943350D01*
X117489096Y-52958169D01*
X117503942Y-52964540D01*
X117553333Y-52974690D01*
X117579091Y-52981011D01*
X117627582Y-52994887D01*
X117643688Y-52996113D01*
X117687444Y-53002250D01*
X117694323Y-53003663D01*
X117703259Y-53005500D01*
X117753682Y-53005500D01*
X117780177Y-53006507D01*
X117787057Y-53007030D01*
X117830476Y-53010337D01*
X117846502Y-53008296D01*
X117890593Y-53005500D01*
X132846019Y-53005500D01*
X132959339Y-53024410D01*
X133060379Y-53079090D01*
X133092791Y-53107712D01*
X133497282Y-53512203D01*
X133564038Y-53605700D01*
X133596820Y-53715811D01*
X133599500Y-53758980D01*
X133599500Y-61110500D01*
X133580590Y-61223820D01*
X133525910Y-61324860D01*
X133441385Y-61402671D01*
X133336174Y-61448821D01*
X133250500Y-61459500D01*
X131904662Y-61459500D01*
X131851101Y-61462345D01*
X131757475Y-61480452D01*
X131617035Y-61507613D01*
X131394002Y-61591782D01*
X131393989Y-61591788D01*
X131188380Y-61712443D01*
X131006116Y-61866115D01*
X131006115Y-61866116D01*
X130852443Y-62048380D01*
X130731788Y-62253989D01*
X130731782Y-62254002D01*
X130647613Y-62477035D01*
X130629457Y-62570916D01*
X130602345Y-62711101D01*
X130599500Y-62764662D01*
X130599500Y-64755338D01*
X130602345Y-64808899D01*
X130629505Y-64949336D01*
X130647613Y-65042964D01*
X130734898Y-65274253D01*
X130757217Y-65386951D01*
X130741734Y-65500790D01*
X130738855Y-65509659D01*
X130673119Y-65703309D01*
X130673119Y-65703311D01*
X130614286Y-65999081D01*
X130594564Y-66300000D01*
X130614286Y-66600918D01*
X130626361Y-66661621D01*
X130673120Y-66896691D01*
X130770055Y-67182252D01*
X130770058Y-67182258D01*
X130770059Y-67182261D01*
X130903429Y-67452710D01*
X130903432Y-67452714D01*
X130903434Y-67452718D01*
X130993470Y-67587466D01*
X131070975Y-67703461D01*
X131150106Y-67793692D01*
X131210606Y-67891358D01*
X131236116Y-68003377D01*
X131223871Y-68117610D01*
X131175198Y-68221677D01*
X131134494Y-68270584D01*
X130199447Y-69205631D01*
X130105947Y-69272389D01*
X129995836Y-69305171D01*
X129881047Y-69300423D01*
X129870693Y-69298087D01*
X129713977Y-69260217D01*
X129713957Y-69260214D01*
X129372138Y-69219500D01*
X129372130Y-69219500D01*
X128114010Y-69219500D01*
X127985177Y-69227145D01*
X127856339Y-69234791D01*
X127517519Y-69295685D01*
X127517510Y-69295688D01*
X127188259Y-69396232D01*
X126873217Y-69535009D01*
X126576803Y-69710070D01*
X126576790Y-69710078D01*
X126303166Y-69918966D01*
X126303154Y-69918976D01*
X126056150Y-70158765D01*
X125839233Y-70426097D01*
X125839230Y-70426101D01*
X125655462Y-70717197D01*
X125589299Y-70856088D01*
X125510052Y-71022445D01*
X125507407Y-71027997D01*
X125507404Y-71028004D01*
X125480116Y-71108719D01*
X125425909Y-71210014D01*
X125341749Y-71288219D01*
X125236755Y-71334860D01*
X125122306Y-71344882D01*
X125010804Y-71317200D01*
X124914332Y-71254813D01*
X124843343Y-71164482D01*
X124805532Y-71055995D01*
X124800500Y-70996943D01*
X124800500Y-63337533D01*
X124819410Y-63224213D01*
X124874090Y-63123173D01*
X124902712Y-63090761D01*
X128098345Y-59895127D01*
X128191842Y-59828372D01*
X128301953Y-59795590D01*
X128416742Y-59800338D01*
X128484160Y-59821801D01*
X128678159Y-59906067D01*
X128692414Y-59910061D01*
X128961443Y-59985440D01*
X129089522Y-60003043D01*
X129252902Y-60025500D01*
X129252907Y-60025500D01*
X129547093Y-60025500D01*
X129547098Y-60025500D01*
X129774516Y-59994241D01*
X129838556Y-59985440D01*
X129955086Y-59952789D01*
X130121841Y-59906067D01*
X130391682Y-59788859D01*
X130643049Y-59635999D01*
X130871260Y-59450335D01*
X131072065Y-59235326D01*
X131241722Y-58994976D01*
X131377072Y-58733764D01*
X131377072Y-58733763D01*
X131377074Y-58733760D01*
X131475592Y-58456555D01*
X131535447Y-58168514D01*
X131535449Y-58168504D01*
X131550500Y-57948466D01*
X131550500Y-57301533D01*
X131535449Y-57081495D01*
X131535447Y-57081485D01*
X131475592Y-56793444D01*
X131377074Y-56516239D01*
X131241723Y-56255026D01*
X131236451Y-56247557D01*
X131072065Y-56014674D01*
X130871260Y-55799665D01*
X130808286Y-55748432D01*
X130719119Y-55675889D01*
X130643049Y-55614001D01*
X130391682Y-55461141D01*
X130121841Y-55343933D01*
X130121839Y-55343932D01*
X130121836Y-55343931D01*
X129838556Y-55264559D01*
X129547109Y-55224501D01*
X129547102Y-55224500D01*
X129547098Y-55224500D01*
X129547093Y-55224500D01*
X129451874Y-55224500D01*
X129338554Y-55205590D01*
X129237514Y-55150910D01*
X129205094Y-55122280D01*
X128798490Y-54715676D01*
X128779383Y-54691966D01*
X128778492Y-54692739D01*
X128762143Y-54673872D01*
X128730690Y-54646618D01*
X128712454Y-54629640D01*
X128708594Y-54625780D01*
X128708581Y-54625770D01*
X128704209Y-54622497D01*
X128684821Y-54606873D01*
X128653376Y-54579626D01*
X128653373Y-54579623D01*
X128653371Y-54579622D01*
X128653369Y-54579620D01*
X128638178Y-54569856D01*
X128622334Y-54561205D01*
X128614367Y-54558233D01*
X128583332Y-54546658D01*
X128560325Y-54537128D01*
X128522462Y-54519837D01*
X128522460Y-54519836D01*
X128522457Y-54519835D01*
X128522453Y-54519834D01*
X128505123Y-54514745D01*
X128487489Y-54510909D01*
X128471227Y-54509746D01*
X128445951Y-54507938D01*
X128421213Y-54505278D01*
X128415805Y-54504500D01*
X128415799Y-54504500D01*
X128410349Y-54504500D01*
X128385451Y-54503611D01*
X128364207Y-54502091D01*
X128343928Y-54500641D01*
X128343927Y-54500641D01*
X128343926Y-54500641D01*
X128319031Y-54502422D01*
X128318946Y-54501244D01*
X128288665Y-54504500D01*
X117986335Y-54504500D01*
X117956053Y-54501244D01*
X117955969Y-54502422D01*
X117931073Y-54500641D01*
X117931071Y-54500641D01*
X117906173Y-54502422D01*
X117889548Y-54503611D01*
X117864651Y-54504500D01*
X117859195Y-54504500D01*
X117853781Y-54505279D01*
X117829038Y-54507938D01*
X117787524Y-54510907D01*
X117769858Y-54514750D01*
X117752538Y-54519836D01*
X117714673Y-54537128D01*
X117691667Y-54546658D01*
X117652672Y-54561202D01*
X117636828Y-54569853D01*
X117621622Y-54579626D01*
X117590164Y-54606884D01*
X117570788Y-54622498D01*
X117566416Y-54625770D01*
X117566403Y-54625782D01*
X117562531Y-54629654D01*
X117544325Y-54646603D01*
X117512860Y-54673869D01*
X117496512Y-54692735D01*
X117495621Y-54691963D01*
X117476516Y-54715669D01*
X117069902Y-55122282D01*
X116976405Y-55189038D01*
X116866294Y-55221820D01*
X116823125Y-55224500D01*
X116552902Y-55224500D01*
X116552898Y-55224500D01*
X116552890Y-55224501D01*
X116261443Y-55264559D01*
X115978163Y-55343931D01*
X115708324Y-55461138D01*
X115708318Y-55461141D01*
X115456949Y-55614002D01*
X115228741Y-55799663D01*
X115228741Y-55799664D01*
X115228740Y-55799665D01*
X115027935Y-56014674D01*
X114972023Y-56093884D01*
X114858276Y-56255026D01*
X114722925Y-56516239D01*
X114624407Y-56793444D01*
X114564552Y-57081485D01*
X114564550Y-57081495D01*
X114549500Y-57301533D01*
X114549500Y-57948466D01*
X114564550Y-58168504D01*
X114564552Y-58168514D01*
X114624407Y-58456555D01*
X114722925Y-58733760D01*
X114858276Y-58994973D01*
X114858278Y-58994976D01*
X115027935Y-59235326D01*
X115228740Y-59450335D01*
X115228741Y-59450335D01*
X115228741Y-59450336D01*
X115299073Y-59507555D01*
X115456951Y-59635999D01*
X115708318Y-59788859D01*
X115978159Y-59906067D01*
X115978164Y-59906069D01*
X115989396Y-59910061D01*
X115988779Y-59911795D01*
X116078215Y-59953740D01*
X116160756Y-60033652D01*
X116212877Y-60136036D01*
X116214826Y-60142438D01*
X116232128Y-60180325D01*
X116241663Y-60203344D01*
X116256205Y-60242334D01*
X116264856Y-60258178D01*
X116274620Y-60273369D01*
X116301873Y-60304821D01*
X116317497Y-60324209D01*
X116320779Y-60328593D01*
X116320780Y-60328594D01*
X116324640Y-60332454D01*
X116341618Y-60350690D01*
X116368872Y-60382143D01*
X116387739Y-60398492D01*
X116386966Y-60399383D01*
X116410676Y-60418490D01*
X117347280Y-61355094D01*
X117414038Y-61448594D01*
X117446820Y-61558705D01*
X117449500Y-61601874D01*
X117449500Y-78613895D01*
X117430590Y-78727215D01*
X117375910Y-78828255D01*
X117291385Y-78906066D01*
X117186174Y-78952216D01*
X117071680Y-78961703D01*
X116960308Y-78933500D01*
X116946147Y-78926906D01*
X116932263Y-78920059D01*
X116932253Y-78920055D01*
X116932252Y-78920055D01*
X116646691Y-78823120D01*
X116646686Y-78823119D01*
X116350918Y-78764286D01*
X116050000Y-78744564D01*
X115749081Y-78764286D01*
X115453313Y-78823119D01*
X115453311Y-78823119D01*
X115453309Y-78823120D01*
X115167748Y-78920055D01*
X115167744Y-78920056D01*
X115167738Y-78920059D01*
X114897289Y-79053429D01*
X114897288Y-79053430D01*
X114661633Y-79210889D01*
X114556904Y-79258123D01*
X114442514Y-79268792D01*
X114330857Y-79241741D01*
X114234034Y-79179901D01*
X114212679Y-79158917D01*
X114165052Y-79107921D01*
X114031260Y-78964665D01*
X114027619Y-78961703D01*
X113803050Y-78779002D01*
X113803049Y-78779001D01*
X113551682Y-78626141D01*
X113281841Y-78508933D01*
X113281839Y-78508932D01*
X113281836Y-78508931D01*
X112998556Y-78429559D01*
X112707109Y-78389501D01*
X112707102Y-78389500D01*
X112707098Y-78389500D01*
X112412902Y-78389500D01*
X112412898Y-78389500D01*
X112412890Y-78389501D01*
X112121443Y-78429559D01*
X111838164Y-78508931D01*
X111811025Y-78520719D01*
X111699553Y-78548520D01*
X111585093Y-78538621D01*
X111480049Y-78492093D01*
X111425205Y-78447391D01*
X109684094Y-76706280D01*
X109617336Y-76612780D01*
X109584554Y-76502669D01*
X109589302Y-76387880D01*
X109631064Y-76280852D01*
X109705316Y-76193184D01*
X109804010Y-76134375D01*
X109916452Y-76110798D01*
X109930874Y-76110500D01*
X110167093Y-76110500D01*
X110167098Y-76110500D01*
X110438555Y-76073189D01*
X110458556Y-76070440D01*
X110741837Y-75991068D01*
X110741835Y-75991068D01*
X110741841Y-75991067D01*
X110857311Y-75940911D01*
X110968781Y-75913109D01*
X111083241Y-75923007D01*
X111172988Y-75960019D01*
X111183903Y-75966424D01*
X111203991Y-75978213D01*
X111203996Y-75978215D01*
X111427035Y-76062386D01*
X111427038Y-76062387D01*
X111661101Y-76107655D01*
X111714662Y-76110500D01*
X111714673Y-76110500D01*
X113405327Y-76110500D01*
X113405338Y-76110500D01*
X113458899Y-76107655D01*
X113692962Y-76062387D01*
X113916008Y-75978213D01*
X114121621Y-75857555D01*
X114303884Y-75703884D01*
X114457555Y-75521621D01*
X114578213Y-75316008D01*
X114662387Y-75092962D01*
X114707655Y-74858899D01*
X114710500Y-74805338D01*
X114710500Y-72074662D01*
X114707655Y-72021101D01*
X114662387Y-71787038D01*
X114662386Y-71787035D01*
X114578217Y-71564002D01*
X114578215Y-71563999D01*
X114578213Y-71563992D01*
X114509497Y-71446893D01*
X114457556Y-71358380D01*
X114303884Y-71176116D01*
X114303883Y-71176115D01*
X114121619Y-71022443D01*
X113916010Y-70901788D01*
X113915997Y-70901782D01*
X113692964Y-70817613D01*
X113599336Y-70799505D01*
X113458899Y-70772345D01*
X113405338Y-70769500D01*
X113405330Y-70769500D01*
X112982534Y-70769500D01*
X112869214Y-70750590D01*
X112768174Y-70695910D01*
X112735754Y-70667280D01*
X109902720Y-67834246D01*
X109835962Y-67740746D01*
X109803180Y-67630635D01*
X109800500Y-67587466D01*
X109800500Y-53731041D01*
X109819410Y-53617721D01*
X109874090Y-53516681D01*
X109958615Y-53438870D01*
X110063826Y-53392720D01*
X110178320Y-53383233D01*
X110289692Y-53411436D01*
X110303858Y-53418032D01*
X110436925Y-53483653D01*
X110716269Y-53578478D01*
X110716278Y-53578481D01*
X111005620Y-53636034D01*
X111005618Y-53636034D01*
X111039735Y-53638270D01*
X111300000Y-53655329D01*
X111594380Y-53636034D01*
X111883722Y-53578481D01*
X112163077Y-53483652D01*
X112427665Y-53353172D01*
X112672957Y-53189273D01*
X112894758Y-52994758D01*
X113089273Y-52772957D01*
X113253172Y-52527665D01*
X113383652Y-52263077D01*
X113478481Y-51983722D01*
X113536034Y-51694380D01*
X113555329Y-51400000D01*
X113536034Y-51105620D01*
X113478481Y-50816278D01*
X113387586Y-50548511D01*
X113383653Y-50536925D01*
X113383650Y-50536919D01*
X113253173Y-50272338D01*
X113253170Y-50272333D01*
X113225791Y-50231358D01*
X113089273Y-50027043D01*
X112979888Y-49902314D01*
X112894758Y-49805241D01*
X112751012Y-49679180D01*
X112672957Y-49610727D01*
X112427665Y-49446828D01*
X112245141Y-49356817D01*
X112151872Y-49289738D01*
X112085436Y-49196008D01*
X112053034Y-49085785D01*
X112050500Y-49043809D01*
X112050500Y-47333425D01*
X112069410Y-47220105D01*
X112124090Y-47119065D01*
X112208615Y-47041254D01*
X112246497Y-47019751D01*
X112327753Y-46980121D01*
X112565496Y-46819762D01*
X112580770Y-46806010D01*
X112706337Y-46692948D01*
X112778608Y-46627875D01*
X112962940Y-46408197D01*
X113114905Y-46165002D01*
X113231545Y-45903025D01*
X113310589Y-45627364D01*
X113332761Y-45469597D01*
X113350500Y-45343389D01*
X113350500Y-44728404D01*
X113350499Y-44728386D01*
X113335503Y-44513929D01*
X113275880Y-44233425D01*
X113177799Y-43963950D01*
X113043169Y-43710747D01*
X112874610Y-43478746D01*
X112874608Y-43478744D01*
X112874606Y-43478741D01*
X112675404Y-43272462D01*
X112675398Y-43272457D01*
X112449434Y-43095914D01*
X112449433Y-43095913D01*
X112449425Y-43095907D01*
X112449420Y-43095904D01*
X112449410Y-43095897D01*
X112201079Y-42952524D01*
X112201072Y-42952521D01*
X111935189Y-42845097D01*
X111935186Y-42845096D01*
X111656946Y-42775723D01*
X111656937Y-42775721D01*
X111656935Y-42775721D01*
X111603027Y-42770055D01*
X111371731Y-42745744D01*
X111085149Y-42755752D01*
X111085140Y-42755753D01*
X110802733Y-42805548D01*
X110802728Y-42805550D01*
X110529992Y-42894167D01*
X110455189Y-42930651D01*
X110345048Y-42963331D01*
X110230264Y-42958477D01*
X110171461Y-42940558D01*
X109935189Y-42845097D01*
X109935186Y-42845096D01*
X109656946Y-42775723D01*
X109656937Y-42775721D01*
X109656935Y-42775721D01*
X109603027Y-42770055D01*
X109371731Y-42745744D01*
X109085149Y-42755752D01*
X109085140Y-42755753D01*
X108802733Y-42805548D01*
X108802728Y-42805550D01*
X108529992Y-42894167D01*
X108455189Y-42930651D01*
X108345048Y-42963331D01*
X108230264Y-42958477D01*
X108171461Y-42940558D01*
X107935189Y-42845097D01*
X107935186Y-42845096D01*
X107656946Y-42775723D01*
X107656937Y-42775721D01*
X107656935Y-42775721D01*
X107603027Y-42770055D01*
X107371731Y-42745744D01*
X107085149Y-42755752D01*
X107085140Y-42755753D01*
X106802733Y-42805548D01*
X106802719Y-42805552D01*
X106529994Y-42894167D01*
X106272245Y-43019880D01*
X106034500Y-43180240D01*
X106034497Y-43180242D01*
X105821396Y-43372120D01*
X105821392Y-43372125D01*
X105637060Y-43591803D01*
X105571957Y-43695988D01*
X105485092Y-43835002D01*
X105368456Y-44096970D01*
X105368453Y-44096979D01*
X105289414Y-44372620D01*
X105289410Y-44372640D01*
X105249500Y-44656610D01*
X105249500Y-45271613D01*
X105264496Y-45486065D01*
X105324120Y-45766577D01*
X105422200Y-46036049D01*
X105422201Y-46036050D01*
X105556831Y-46289253D01*
X105655653Y-46425269D01*
X105725393Y-46521258D01*
X105829357Y-46628915D01*
X105924597Y-46727539D01*
X106150575Y-46904093D01*
X106150581Y-46904097D01*
X106150589Y-46904102D01*
X106398920Y-47047475D01*
X106398932Y-47047480D01*
X106615989Y-47135177D01*
X106713974Y-47195160D01*
X106787173Y-47283709D01*
X106802947Y-47320448D01*
X106804467Y-47319755D01*
X106832128Y-47380325D01*
X106841663Y-47403344D01*
X106856205Y-47442334D01*
X106864856Y-47458178D01*
X106874620Y-47473369D01*
X106901873Y-47504821D01*
X106917497Y-47524209D01*
X106920779Y-47528593D01*
X106920780Y-47528594D01*
X106924640Y-47532454D01*
X106941618Y-47550690D01*
X106968872Y-47582143D01*
X106987739Y-47598492D01*
X106986966Y-47599383D01*
X107010676Y-47618490D01*
X107947280Y-48555094D01*
X108014038Y-48648594D01*
X108046820Y-48758705D01*
X108049500Y-48801874D01*
X108049500Y-68158667D01*
X108046245Y-68188944D01*
X108047422Y-68189029D01*
X108045641Y-68213927D01*
X108048611Y-68255451D01*
X108049500Y-68280347D01*
X108049500Y-68285805D01*
X108050278Y-68291213D01*
X108052938Y-68315951D01*
X108054746Y-68341227D01*
X108055909Y-68357489D01*
X108059745Y-68375123D01*
X108064834Y-68392453D01*
X108064835Y-68392457D01*
X108064836Y-68392460D01*
X108064837Y-68392462D01*
X108082128Y-68430325D01*
X108091663Y-68453344D01*
X108106205Y-68492334D01*
X108114856Y-68508178D01*
X108124620Y-68523369D01*
X108151873Y-68554821D01*
X108167497Y-68574209D01*
X108170779Y-68578593D01*
X108170780Y-68578594D01*
X108174640Y-68582454D01*
X108191618Y-68600690D01*
X108218872Y-68632143D01*
X108237739Y-68648492D01*
X108236966Y-68649383D01*
X108260676Y-68668490D01*
X109417280Y-69825094D01*
X109484038Y-69918594D01*
X109516820Y-70028705D01*
X109519500Y-70071874D01*
X109519500Y-70563917D01*
X109500590Y-70677237D01*
X109445910Y-70778277D01*
X109361385Y-70856088D01*
X109308318Y-70882394D01*
X109309095Y-70884183D01*
X109028324Y-71006138D01*
X109028311Y-71006145D01*
X108931334Y-71065118D01*
X108824685Y-71107840D01*
X108709944Y-71113619D01*
X108599543Y-71081828D01*
X108568666Y-71065118D01*
X108507634Y-71028004D01*
X108471682Y-71006141D01*
X108201841Y-70888933D01*
X108201839Y-70888932D01*
X108201836Y-70888931D01*
X107918556Y-70809559D01*
X107627109Y-70769501D01*
X107627102Y-70769500D01*
X107627098Y-70769500D01*
X107332902Y-70769500D01*
X107332898Y-70769500D01*
X107332890Y-70769501D01*
X107041443Y-70809559D01*
X106758163Y-70888931D01*
X106488324Y-71006138D01*
X106488318Y-71006141D01*
X106236949Y-71159002D01*
X106008741Y-71344663D01*
X106008741Y-71344664D01*
X106008740Y-71344665D01*
X105807935Y-71559674D01*
X105760756Y-71626512D01*
X105638276Y-71800026D01*
X105502925Y-72061239D01*
X105404407Y-72338444D01*
X105344552Y-72626485D01*
X105344550Y-72626495D01*
X105329500Y-72846533D01*
X105329500Y-74033466D01*
X105344550Y-74253504D01*
X105344552Y-74253514D01*
X105404407Y-74541555D01*
X105502925Y-74818760D01*
X105638276Y-75079973D01*
X105638278Y-75079976D01*
X105807935Y-75320326D01*
X106008740Y-75535335D01*
X106008741Y-75535335D01*
X106008741Y-75535336D01*
X106076956Y-75590833D01*
X106236951Y-75720999D01*
X106488318Y-75873859D01*
X106758159Y-75991067D01*
X106758163Y-75991068D01*
X107041443Y-76070440D01*
X107169522Y-76088043D01*
X107332902Y-76110500D01*
X107332907Y-76110500D01*
X107528126Y-76110500D01*
X107641446Y-76129410D01*
X107742486Y-76184090D01*
X107774906Y-76212720D01*
X109480072Y-77917886D01*
X109546830Y-78011386D01*
X109579612Y-78121497D01*
X109574864Y-78236286D01*
X109533102Y-78343314D01*
X109458850Y-78430982D01*
X109360156Y-78489791D01*
X109327460Y-78500722D01*
X109298162Y-78508931D01*
X109028317Y-78626141D01*
X109017328Y-78632824D01*
X108910679Y-78675544D01*
X108795937Y-78681320D01*
X108685537Y-78649526D01*
X108591442Y-78583608D01*
X108589221Y-78581407D01*
X107493490Y-77485676D01*
X107474383Y-77461966D01*
X107473492Y-77462739D01*
X107457143Y-77443872D01*
X107425690Y-77416618D01*
X107407454Y-77399640D01*
X107403594Y-77395780D01*
X107403593Y-77395779D01*
X107399209Y-77392497D01*
X107379821Y-77376873D01*
X107375782Y-77373373D01*
X107348373Y-77349623D01*
X107348371Y-77349622D01*
X107348369Y-77349620D01*
X107333178Y-77339856D01*
X107317334Y-77331205D01*
X107309367Y-77328233D01*
X107278332Y-77316658D01*
X107255325Y-77307128D01*
X107217462Y-77289837D01*
X107217460Y-77289836D01*
X107217457Y-77289835D01*
X107217453Y-77289834D01*
X107200123Y-77284745D01*
X107182489Y-77280909D01*
X107166227Y-77279746D01*
X107140951Y-77277938D01*
X107116213Y-77275278D01*
X107110805Y-77274500D01*
X107110799Y-77274500D01*
X107105349Y-77274500D01*
X107080451Y-77273611D01*
X107059207Y-77272091D01*
X107038928Y-77270641D01*
X107038927Y-77270641D01*
X107038926Y-77270641D01*
X107014031Y-77272422D01*
X107013946Y-77271244D01*
X106983665Y-77274500D01*
X106637534Y-77274500D01*
X106524214Y-77255590D01*
X106423174Y-77200910D01*
X106390754Y-77172280D01*
X103447720Y-74229246D01*
X103380962Y-74135746D01*
X103348180Y-74025635D01*
X103345500Y-73982466D01*
X103345500Y-62655606D01*
X103364410Y-62542286D01*
X103419090Y-62441246D01*
X103503615Y-62363435D01*
X103608826Y-62317285D01*
X103671667Y-62307354D01*
X103844380Y-62296034D01*
X104133722Y-62238481D01*
X104413077Y-62143652D01*
X104677665Y-62013172D01*
X104922957Y-61849273D01*
X105144758Y-61654758D01*
X105339273Y-61432957D01*
X105503172Y-61187665D01*
X105633652Y-60923077D01*
X105728481Y-60643722D01*
X105786034Y-60354380D01*
X105805329Y-60060000D01*
X105786034Y-59765620D01*
X105728481Y-59476278D01*
X105719675Y-59450336D01*
X105633653Y-59196925D01*
X105633650Y-59196919D01*
X105503173Y-58932338D01*
X105503170Y-58932333D01*
X105376638Y-58742964D01*
X105339273Y-58687043D01*
X105209979Y-58539612D01*
X105144758Y-58465241D01*
X105026588Y-58361609D01*
X104922957Y-58270727D01*
X104677665Y-58106828D01*
X104677664Y-58106827D01*
X104677662Y-58106826D01*
X104445141Y-57992160D01*
X104351871Y-57925080D01*
X104285435Y-57831350D01*
X104253033Y-57721126D01*
X104250500Y-57679151D01*
X104250500Y-53706191D01*
X104269410Y-53592871D01*
X104324090Y-53491831D01*
X104408615Y-53414020D01*
X104445142Y-53393182D01*
X104446079Y-53392720D01*
X104627665Y-53303172D01*
X104872957Y-53139273D01*
X105094758Y-52944758D01*
X105289273Y-52722957D01*
X105453172Y-52477665D01*
X105583652Y-52213077D01*
X105678481Y-51933722D01*
X105736034Y-51644380D01*
X105755329Y-51350000D01*
X105736034Y-51055620D01*
X105678481Y-50766278D01*
X105614472Y-50577714D01*
X105583653Y-50486925D01*
X105583650Y-50486919D01*
X105453173Y-50222338D01*
X105453170Y-50222333D01*
X105322682Y-50027044D01*
X105289273Y-49977043D01*
X105138607Y-49805242D01*
X105094758Y-49755241D01*
X104976588Y-49651609D01*
X104872957Y-49560727D01*
X104627665Y-49396828D01*
X104546533Y-49356818D01*
X104363074Y-49266346D01*
X104083730Y-49171521D01*
X104083719Y-49171518D01*
X103794375Y-49113965D01*
X103794382Y-49113965D01*
X103584026Y-49100178D01*
X103472186Y-49073897D01*
X103374938Y-49012725D01*
X103360073Y-48998705D01*
X101372716Y-47011348D01*
X101305958Y-46917848D01*
X101273176Y-46807737D01*
X101277924Y-46692948D01*
X101319686Y-46585920D01*
X101352147Y-46540235D01*
X101425582Y-46452718D01*
X101462940Y-46408197D01*
X101614905Y-46165002D01*
X101731545Y-45903025D01*
X101810589Y-45627364D01*
X101832761Y-45469597D01*
X101850500Y-45343389D01*
X101850500Y-44728404D01*
X101850499Y-44728386D01*
X101835503Y-44513929D01*
X101775880Y-44233425D01*
X101677799Y-43963950D01*
X101543169Y-43710747D01*
X101374610Y-43478746D01*
X101374608Y-43478744D01*
X101374606Y-43478741D01*
X101175404Y-43272462D01*
X101175398Y-43272457D01*
X100949434Y-43095914D01*
X100949433Y-43095913D01*
X100949425Y-43095907D01*
X100949420Y-43095904D01*
X100949410Y-43095897D01*
X100701079Y-42952524D01*
X100701072Y-42952521D01*
X100435189Y-42845097D01*
X100435186Y-42845096D01*
X100156946Y-42775723D01*
X100156937Y-42775721D01*
X100156935Y-42775721D01*
X100103027Y-42770055D01*
X99871731Y-42745744D01*
X99585149Y-42755752D01*
X99585140Y-42755753D01*
X99302733Y-42805548D01*
X99302728Y-42805550D01*
X99029992Y-42894167D01*
X98955189Y-42930651D01*
X98845048Y-42963331D01*
X98730264Y-42958477D01*
X98671461Y-42940558D01*
X98435189Y-42845097D01*
X98435186Y-42845096D01*
X98156946Y-42775723D01*
X98156937Y-42775721D01*
X98156935Y-42775721D01*
X98103027Y-42770055D01*
X97871731Y-42745744D01*
X97585149Y-42755752D01*
X97585140Y-42755753D01*
X97302733Y-42805548D01*
X97302728Y-42805550D01*
X97029992Y-42894167D01*
X96955189Y-42930651D01*
X96845048Y-42963331D01*
X96730264Y-42958477D01*
X96671461Y-42940558D01*
X96435189Y-42845097D01*
X96435186Y-42845096D01*
X96156946Y-42775723D01*
X96156937Y-42775721D01*
X96156935Y-42775721D01*
X96103027Y-42770055D01*
X95871731Y-42745744D01*
X95585149Y-42755752D01*
X95585140Y-42755753D01*
X95302733Y-42805548D01*
X95302719Y-42805552D01*
X95029994Y-42894167D01*
X94772245Y-43019880D01*
X94534500Y-43180240D01*
X94534497Y-43180242D01*
X94321396Y-43372120D01*
X94321392Y-43372125D01*
X94137060Y-43591803D01*
X94071957Y-43695988D01*
X93985092Y-43835002D01*
X93868456Y-44096970D01*
X93868453Y-44096979D01*
X93789414Y-44372620D01*
X93789410Y-44372640D01*
X93749500Y-44656610D01*
X93749500Y-45271613D01*
X93764496Y-45486065D01*
X93824120Y-45766577D01*
X93922200Y-46036049D01*
X93922201Y-46036050D01*
X94056831Y-46289253D01*
X94155653Y-46425269D01*
X94225393Y-46521258D01*
X94329357Y-46628915D01*
X94424597Y-46727539D01*
X94650575Y-46904093D01*
X94650581Y-46904097D01*
X94650589Y-46904102D01*
X94898920Y-47047475D01*
X94898927Y-47047478D01*
X95164810Y-47154902D01*
X95164813Y-47154903D01*
X95446934Y-47225244D01*
X95552313Y-47271007D01*
X95609283Y-47317097D01*
X100797280Y-52505094D01*
X100864038Y-52598594D01*
X100896820Y-52708705D01*
X100899500Y-52751874D01*
X100899500Y-60074252D01*
X100880590Y-60187572D01*
X100825910Y-60288612D01*
X100741385Y-60366423D01*
X100636174Y-60412573D01*
X100521680Y-60422060D01*
X100410308Y-60393857D01*
X100314129Y-60331020D01*
X100303720Y-60321032D01*
X90602720Y-50620032D01*
X90535962Y-50526532D01*
X90503180Y-50416421D01*
X90500500Y-50373252D01*
X90500500Y-49762173D01*
X90500500Y-49762162D01*
X90497655Y-49708601D01*
X90452387Y-49474538D01*
X90428324Y-49410775D01*
X90368217Y-49251502D01*
X90368215Y-49251499D01*
X90368213Y-49251492D01*
X90287509Y-49113965D01*
X90247556Y-49045880D01*
X90093884Y-48863616D01*
X90093883Y-48863615D01*
X89911619Y-48709943D01*
X89706010Y-48589288D01*
X89705997Y-48589282D01*
X89482964Y-48505113D01*
X89389336Y-48487005D01*
X89248899Y-48459845D01*
X89234813Y-48459096D01*
X89122656Y-48434202D01*
X89024659Y-48374239D01*
X88951441Y-48285705D01*
X88910938Y-48178195D01*
X88907538Y-48063358D01*
X88941609Y-47953640D01*
X88994735Y-47876214D01*
X89017853Y-47850707D01*
X89212249Y-47636224D01*
X89455176Y-47308675D01*
X89664828Y-46958891D01*
X89839186Y-46590243D01*
X89976570Y-46206279D01*
X90075658Y-45810699D01*
X90135495Y-45407311D01*
X90155505Y-45000000D01*
X90135495Y-44592689D01*
X90075658Y-44189301D01*
X89976570Y-43793721D01*
X89839186Y-43409757D01*
X89664828Y-43041109D01*
X89643854Y-43006116D01*
X89455178Y-42691328D01*
X89455169Y-42691315D01*
X89212256Y-42363785D01*
X89212239Y-42363764D01*
X88938386Y-42061613D01*
X88636235Y-41787760D01*
X88636214Y-41787743D01*
X88423278Y-41629819D01*
X88343523Y-41547126D01*
X88294940Y-41443017D01*
X88282793Y-41328774D01*
X88308399Y-41216777D01*
X88368983Y-41119162D01*
X88457980Y-41046508D01*
X88565746Y-41006688D01*
X88631177Y-41000500D01*
X133368823Y-41000500D01*
X133482143Y-41019410D01*
G37*
G04 #@! TD.AperFunction*
G04 #@! TA.AperFunction,Conductor*
G36*
X123200455Y-59713170D02*
G01*
X123231323Y-59729875D01*
X123328318Y-59788859D01*
X123598159Y-59906067D01*
X123612414Y-59910061D01*
X123881443Y-59985440D01*
X124009522Y-60003043D01*
X124172902Y-60025500D01*
X124172907Y-60025500D01*
X124467093Y-60025500D01*
X124467098Y-60025500D01*
X124626803Y-60003549D01*
X124741642Y-60006852D01*
X124849187Y-60047264D01*
X124937783Y-60120406D01*
X124997829Y-60218353D01*
X125022819Y-60330489D01*
X125010044Y-60444663D01*
X124960889Y-60548504D01*
X124921106Y-60596078D01*
X123210669Y-62306515D01*
X123186963Y-62325621D01*
X123187735Y-62326512D01*
X123168869Y-62342860D01*
X123141603Y-62374325D01*
X123124654Y-62392531D01*
X123120782Y-62396403D01*
X123120770Y-62396416D01*
X123117498Y-62400788D01*
X123101884Y-62420164D01*
X123074626Y-62451622D01*
X123064853Y-62466828D01*
X123056202Y-62482672D01*
X123041658Y-62521667D01*
X123032128Y-62544673D01*
X123014836Y-62582538D01*
X123009750Y-62599858D01*
X123005907Y-62617524D01*
X123002938Y-62659038D01*
X123000279Y-62683781D01*
X122999500Y-62689195D01*
X122999500Y-62694649D01*
X122998611Y-62719548D01*
X122995641Y-62761070D01*
X122997422Y-62785968D01*
X122996243Y-62786052D01*
X122999500Y-62816334D01*
X122999500Y-70964917D01*
X122980590Y-71078237D01*
X122925910Y-71179277D01*
X122841385Y-71257088D01*
X122736174Y-71303238D01*
X122621680Y-71312725D01*
X122579496Y-71306618D01*
X122499345Y-71289962D01*
X122488148Y-71287636D01*
X122488147Y-71287635D01*
X122488143Y-71287635D01*
X122488141Y-71287634D01*
X122266875Y-71272500D01*
X122266871Y-71272500D01*
X121643129Y-71272500D01*
X121643125Y-71272500D01*
X121421858Y-71287634D01*
X121421848Y-71287636D01*
X121132202Y-71347825D01*
X120853449Y-71446893D01*
X120590773Y-71583001D01*
X120500761Y-71646539D01*
X120397277Y-71696439D01*
X120283197Y-71710035D01*
X120170884Y-71685852D01*
X120072508Y-71626512D01*
X119998731Y-71538444D01*
X119957546Y-71431193D01*
X119950500Y-71361416D01*
X119950500Y-61887534D01*
X119969410Y-61774214D01*
X120024090Y-61673174D01*
X120052720Y-61640754D01*
X121565754Y-60127720D01*
X121659254Y-60060962D01*
X121769365Y-60028180D01*
X121812534Y-60025500D01*
X121927093Y-60025500D01*
X121927098Y-60025500D01*
X122154516Y-59994241D01*
X122218556Y-59985440D01*
X122335086Y-59952789D01*
X122501841Y-59906067D01*
X122771682Y-59788859D01*
X122868667Y-59729880D01*
X122975312Y-59687159D01*
X123090054Y-59681380D01*
X123200455Y-59713170D01*
G37*
G04 #@! TD.AperFunction*
G04 #@! TA.AperFunction,Conductor*
G36*
X139783223Y-47308399D02*
G01*
X139880838Y-47368983D01*
X139953492Y-47457980D01*
X139993312Y-47565746D01*
X139999500Y-47631177D01*
X139999500Y-52166180D01*
X139980590Y-52279500D01*
X139925910Y-52380540D01*
X139841385Y-52458351D01*
X139736174Y-52504501D01*
X139621680Y-52513988D01*
X139510308Y-52485785D01*
X139414129Y-52422948D01*
X139349500Y-52342815D01*
X139317556Y-52288380D01*
X139163884Y-52106116D01*
X139163883Y-52106115D01*
X138981619Y-51952443D01*
X138776010Y-51831788D01*
X138775997Y-51831782D01*
X138552964Y-51747613D01*
X138459336Y-51729505D01*
X138318899Y-51702345D01*
X138265338Y-51699500D01*
X138265330Y-51699500D01*
X137133854Y-51699500D01*
X137020534Y-51680590D01*
X136919494Y-51625910D01*
X136887074Y-51597280D01*
X134968974Y-49679180D01*
X134902216Y-49585680D01*
X134869434Y-49475569D01*
X134874182Y-49360780D01*
X134915944Y-49253752D01*
X134990196Y-49166084D01*
X135088890Y-49107275D01*
X135201332Y-49083698D01*
X135266961Y-49087177D01*
X135490125Y-49120281D01*
X135592675Y-49135493D01*
X135592689Y-49135495D01*
X136000000Y-49155505D01*
X136407311Y-49135495D01*
X136810699Y-49075658D01*
X137206279Y-48976570D01*
X137590243Y-48839186D01*
X137958891Y-48664828D01*
X138308675Y-48455176D01*
X138636224Y-48212249D01*
X138938386Y-47938386D01*
X139212249Y-47636224D01*
X139336855Y-47468213D01*
X139370181Y-47423278D01*
X139452874Y-47343523D01*
X139556983Y-47294940D01*
X139671226Y-47282793D01*
X139783223Y-47308399D01*
G37*
G04 #@! TD.AperFunction*
M02*
