M48
; DRILL file {KiCad 7.0.11-2.fc39} date lun. 29 avril 2024 12:27:32
; FORMAT={-:-/ absolute / metric / decimal}
; #@! TF.CreationDate,2024-04-29T12:27:32+02:00
; #@! TF.GenerationSoftware,Kicad,Pcbnew,7.0.11-2.fc39
; #@! TF.FileFunction,MixedPlating,1,2
FMAT,2
METRIC
; #@! TA.AperFunction,Plated,PTH,ViaDrill
T1C0.700
; #@! TA.AperFunction,Plated,PTH,ComponentDrill
T2C0.762
; #@! TA.AperFunction,Plated,PTH,ComponentDrill
T3C0.800
; #@! TA.AperFunction,Plated,PTH,ComponentDrill
T4C0.850
; #@! TA.AperFunction,Plated,PTH,ComponentDrill
T5C1.000
; #@! TA.AperFunction,Plated,PTH,ComponentDrill
T6C1.500
; #@! TA.AperFunction,Plated,PTH,ComponentDrill
T7C3.500
%
G90
G05
T1
X88.0Y-78.4
X90.0Y-86.3
X92.0Y-94.4
X94.5Y-60.06
X96.5Y-86.3
X96.5Y-94.4
X96.9Y-78.5
X103.5Y-51.35
X103.55Y-60.06
X111.3Y-51.4
T2
X99.095Y-70.895
X99.095Y-73.435
X99.095Y-75.975
X99.095Y-78.515
X99.095Y-81.055
X99.095Y-83.595
X99.095Y-86.135
X99.095Y-88.675
X99.095Y-91.215
X99.095Y-93.755
X99.095Y-96.295
X121.955Y-70.895
X121.955Y-73.435
X121.955Y-75.975
X121.955Y-78.515
X121.955Y-81.055
X121.955Y-83.595
X121.955Y-86.135
X121.955Y-88.675
X121.955Y-91.215
X121.955Y-93.755
X121.955Y-96.295
T3
X88.0Y-65.0
X88.0Y-73.485
X88.0Y-82.0
X88.0Y-90.0
X88.0Y-98.0
X90.0Y-65.0
X90.0Y-73.485
X90.0Y-82.0
X90.0Y-90.0
X90.0Y-98.0
X92.0Y-65.0
X92.0Y-73.485
X92.0Y-82.0
X92.0Y-90.0
X92.0Y-98.0
X93.8Y-45.0
X94.0Y-65.0
X94.0Y-73.485
X94.0Y-82.0
X94.0Y-90.0
X94.0Y-98.0
X95.8Y-45.0
X97.8Y-45.0
X99.8Y-45.0
X103.075Y-91.25
X103.075Y-96.25
X104.94Y-73.44
X104.94Y-81.06
X105.3Y-45.0
X107.3Y-45.0
X107.48Y-73.44
X107.48Y-81.06
X109.3Y-45.0
X110.02Y-73.44
X110.02Y-81.06
X110.65Y-89.15
X110.65Y-99.31
X111.3Y-45.0
X112.56Y-73.44
X112.56Y-81.06
X113.95Y-86.47
X113.95Y-96.63
X114.16Y-50.005
X114.16Y-57.625
X116.05Y-76.05
X116.05Y-81.05
X116.7Y-50.005
X116.7Y-57.625
X117.25Y-83.65
X117.25Y-88.65
X119.24Y-50.005
X119.24Y-57.625
X121.78Y-50.005
X121.78Y-57.625
X124.32Y-50.005
X124.32Y-57.625
X126.86Y-50.005
X126.86Y-57.625
X127.9Y-86.2
X127.9Y-91.2
X129.4Y-50.005
X129.4Y-57.625
T4
X131.9Y-84.6
X131.9Y-86.6
X131.9Y-88.6
X131.9Y-90.6
T5
X88.0Y-50.758
X88.0Y-53.297
X88.0Y-57.46
X88.0Y-60.0
X117.8Y-45.1
X120.34Y-45.1
X125.5Y-45.1
X126.4Y-96.8
X126.4Y-99.34
X126.4Y-101.88
X128.04Y-45.1
X132.17Y-54.1
X133.1Y-63.76
X133.1Y-66.3
X137.17Y-54.1
T6
X128.7Y-72.12
X128.7Y-77.2
T7
X86.0Y-45.0
X86.0Y-105.0
X136.0Y-45.0
X136.0Y-105.0
M30
